<svg version="1.1" id="Layer_1" xmlns="http://www.w3.org/2000/svg" xmlns:xlink="http://www.w3.org/1999/xlink" x="0px" y="0px"
	 width="100%" viewBox="0 0 677 323" enable-background="new 0 0 677 323" xml:space="preserve">
<path fill="#FE6171" opacity="1.000000" stroke="none" 
	d="
M411.000000,324.000000 
	C274.000031,324.000000 137.500061,324.000000 1.000073,324.000000 
	C1.000049,216.333389 1.000049,108.666786 1.000024,1.000131 
	C226.666550,1.000087 452.333099,1.000087 677.999756,1.000044 
	C677.999817,108.666527 677.999817,216.333054 677.999878,323.999786 
	C589.166687,324.000000 500.333344,324.000000 411.000000,324.000000 
M216.530960,184.260376 
	C218.125336,198.853592 217.144150,213.070374 211.761230,226.975693 
	C195.684982,268.504395 149.400452,290.694244 105.959297,274.993805 
	C71.431778,262.514923 48.978477,227.074799 51.909672,190.252838 
	C53.273468,173.120758 70.993607,163.560944 85.573158,172.184128 
	C94.151787,177.258011 96.330841,185.601715 96.749207,194.820099 
	C97.060745,201.684738 100.300636,204.749130 107.107925,204.920059 
	C109.439140,204.978607 111.773880,204.970337 114.105576,204.922470 
	C121.377426,204.773148 124.590889,201.427933 125.151070,194.208908 
	C125.455269,190.288742 126.057549,186.278915 127.297569,182.567520 
	C129.909225,174.750809 138.506775,169.080048 147.000443,168.991852 
	C155.871201,168.899734 164.913513,174.365967 167.645340,182.097656 
	C171.364868,192.624802 170.624237,203.065857 165.716492,213.122269 
	C160.955002,222.878952 152.799881,228.398727 142.694626,231.628571 
	C136.463562,233.620132 134.491364,236.592850 134.353302,243.025055 
	C134.303253,245.355850 134.235474,247.701294 134.426208,250.019455 
	C135.018112,257.213928 140.031586,261.152466 147.140198,259.803009 
	C162.289688,256.927185 174.628143,249.248611 184.341599,237.353607 
	C195.697205,223.447678 199.257904,207.319138 198.204651,189.695602 
	C196.890244,167.702484 185.985504,152.031418 166.119675,143.768005 
	C147.634323,136.078827 129.804031,139.528824 114.301117,152.447250 
	C111.405739,154.859940 109.895180,154.545090 107.246544,152.372269 
	C93.798958,141.340424 78.696503,137.799454 61.509552,141.717697 
	C42.013058,146.162476 22.921156,166.800095 23.839277,187.573044 
	C24.103882,193.559875 24.042793,199.572311 23.865398,205.565140 
	C23.491381,218.200531 27.191919,229.994141 32.066467,241.277405 
	C40.980278,261.910522 54.831791,278.719543 73.958717,290.807861 
	C105.786430,310.923157 139.777695,314.937866 174.718048,301.230164 
	C209.498764,287.585083 232.320923,262.056610 242.281113,225.718445 
	C249.278412,200.189957 247.118698,175.158600 236.258011,151.144196 
	C225.859680,128.152054 209.458740,110.451698 186.880112,98.784225 
	C184.153976,97.375488 183.812988,95.854439 185.455521,93.272324 
	C195.089859,78.126808 196.345535,62.236130 187.868195,46.394161 
	C180.009232,31.707764 167.768509,22.568115 150.533966,21.874311 
	C140.718506,21.479172 130.875916,21.743238 121.045509,21.736704 
	C105.915741,21.726648 104.614594,23.086445 104.995522,38.388626 
	C104.999664,38.555195 105.000641,38.721874 105.006981,38.888355 
	C105.255539,45.424004 108.224861,48.979069 114.652374,49.245422 
	C124.965958,49.672806 135.300278,49.579388 145.624542,49.774734 
	C156.307907,49.976875 164.031982,57.285339 164.223206,67.274521 
	C164.420944,77.603081 156.884613,85.360977 146.096146,85.798904 
	C141.770309,85.974503 137.421356,85.708504 133.106812,85.998726 
	C128.574051,86.303635 125.051430,88.506187 124.050728,93.182541 
	C123.431267,96.077347 123.301788,99.158508 123.472992,102.125977 
	C124.023140,111.661987 127.325706,114.679474 136.959824,114.807487 
	C158.466629,115.093285 176.746353,123.172859 192.213562,137.855423 
	C205.338684,150.314697 212.867523,165.805084 216.530960,184.260376 
M360.286163,264.008301 
	C361.889740,268.573669 365.134796,270.669312 369.902924,270.039642 
	C374.080261,269.487976 376.878082,265.823914 377.266937,260.679169 
	C377.404755,258.855804 377.351807,257.016510 377.352875,255.184494 
	C377.360840,241.192657 377.326935,227.200699 377.377808,213.209045 
	C377.401794,206.607224 379.387848,203.404282 384.169525,201.821396 
	C392.336273,199.117935 399.087372,204.069321 399.162170,213.095444 
	C399.293274,228.918533 399.172394,244.743591 399.257690,260.567291 
	C399.288208,266.226624 402.586609,269.804840 407.504883,269.920807 
	C412.247498,270.032623 415.967743,266.735687 416.014252,261.389709 
	C416.163452,244.236740 416.582062,227.052597 415.762665,209.934784 
	C415.043854,194.917923 403.348206,184.522324 388.566742,184.147842 
	C380.921875,183.954163 374.300262,186.759415 368.598755,191.652115 
	C366.293762,190.153610 364.255341,188.708878 362.107483,187.451050 
	C345.761719,177.878647 322.007843,189.777695 321.152863,208.595840 
	C320.344727,226.382538 320.788483,244.234039 320.978912,262.053864 
	C321.045197,268.258453 327.355286,271.763763 332.868561,268.986389 
	C336.479065,267.167511 337.807404,263.927979 337.794006,259.930481 
	C337.742188,244.439743 337.979797,228.945282 337.714417,213.459000 
	C337.560211,204.460556 343.531952,201.105698 348.955902,201.077774 
	C355.726868,201.042908 359.435577,205.484909 359.461487,213.357178 
	C359.483429,220.019867 359.397400,226.683365 359.470428,233.345291 
	C359.579742,243.319870 359.786560,253.293396 360.286163,264.008301 
M284.106567,85.468063 
	C280.430206,86.789429 276.753815,88.110786 273.165070,89.400650 
	C272.761780,88.760345 272.448059,88.493065 272.442993,88.220032 
	C272.346985,83.064743 272.291809,77.908707 272.219299,72.752953 
	C272.134216,66.706902 269.043304,62.885098 264.142517,62.752918 
	C259.133301,62.617817 255.304657,66.814644 255.292328,72.695404 
	C255.251099,92.344833 255.142487,111.995590 255.314972,131.643585 
	C255.489914,151.571991 268.701233,166.703140 288.355530,169.916367 
	C305.020020,172.640808 322.374725,162.032562 328.522278,146.246536 
	C331.954712,137.432541 331.308624,128.493988 330.761261,119.646080 
	C330.415283,114.053734 328.729462,107.992401 325.862640,103.209557 
	C316.630035,87.806633 302.442322,82.406754 284.106567,85.468063 
M425.063538,119.498894 
	C425.144470,124.491844 424.898926,129.515717 425.368195,134.471893 
	C426.714539,148.691055 433.324432,159.792953 446.323975,166.167908 
	C459.410370,172.585464 472.469574,171.841202 484.605530,163.538681 
	C501.795746,151.778381 504.584045,133.717514 499.359039,112.523804 
	C493.377014,88.259384 469.535126,78.315216 446.555267,88.196724 
	C445.304474,88.734566 443.951080,89.033806 442.117218,89.610092 
	C442.117218,83.128288 442.316711,77.467018 442.015900,71.832451 
	C441.900604,69.672707 441.249207,66.549232 439.771179,65.674652 
	C437.209106,64.158623 433.601501,63.028629 430.818115,63.603676 
	C427.012207,64.389999 425.225861,67.961403 425.215881,72.055153 
	C425.178040,87.536530 425.119720,103.017860 425.063538,119.498894 
M602.271240,265.294647 
	C606.831238,266.753082 611.296265,268.865509 615.969482,269.543640 
	C628.483887,271.359711 639.263428,267.214020 648.156006,258.353851 
	C652.585266,253.940704 652.695801,249.476425 648.950562,245.625992 
	C645.230469,241.801392 640.816345,242.051117 635.895447,246.710846 
	C629.513794,252.753815 622.150818,254.813599 613.881409,251.912750 
	C607.972046,249.839798 603.387512,246.014023 601.464966,239.090256 
	C607.450073,237.978851 612.821533,236.947571 618.205872,235.988632 
	C629.335388,234.006500 640.488037,232.149094 651.595093,230.049576 
	C654.821777,229.439651 657.723083,227.809158 657.826965,223.948410 
	C657.929565,220.133499 658.410278,216.090302 657.395630,212.525635 
	C653.302979,198.146576 644.033264,188.364212 629.266113,185.176025 
	C614.500854,181.988220 601.738220,186.109329 591.646912,197.855942 
	C583.382080,207.476517 582.751221,218.872040 582.905640,230.714279 
	C583.098999,245.547943 589.033875,256.985107 602.271240,265.294647 
M382.742401,84.796242 
	C363.676300,83.622276 348.868195,91.875816 343.111603,109.099129 
	C340.465881,117.014908 341.132233,126.131134 340.859619,134.720871 
	C340.577118,143.623123 344.320923,151.252380 350.200867,157.724075 
	C361.791565,170.481216 379.135315,173.712799 394.876740,166.396683 
	C396.769379,165.517044 398.850006,163.512970 400.931976,166.564423 
	C403.265259,169.984222 406.606812,170.836258 410.558472,169.585938 
	C414.559021,168.320129 415.991241,165.148270 416.022736,161.490341 
	C416.141846,147.666031 416.728302,133.792053 415.809845,120.025414 
	C414.527130,100.798622 401.971039,87.747917 382.742401,84.796242 
M541.204895,148.171173 
	C540.439514,145.450531 539.673157,142.730179 538.908936,140.009216 
	C534.281250,123.533051 529.670959,107.051971 525.015930,90.583527 
	C523.673523,85.834343 519.428711,82.825470 515.470032,83.673248 
	C510.332703,84.773438 507.672821,89.095711 508.734589,94.643196 
	C508.953705,95.788025 509.165527,96.940002 509.484467,98.059105 
	C514.537476,115.789230 520.014526,133.412231 524.506348,151.282990 
	C526.842102,160.575928 531.481262,166.842834 541.071716,169.712936 
	C540.692505,171.446548 540.419067,173.041351 539.991394,174.593658 
	C537.873535,182.281311 535.619141,189.932755 533.605713,197.647293 
	C532.360229,202.418884 534.927185,206.924393 539.385193,208.400986 
	C543.175293,209.656357 547.447693,207.402100 549.297302,203.010696 
	C550.197571,200.873367 550.929504,198.650146 551.556274,196.414948 
	C559.171265,169.259354 566.765320,142.097855 574.333374,114.929100 
	C576.250671,108.046188 578.120117,101.148514 579.890747,94.226707 
	C581.043884,89.719017 579.018250,86.053658 574.625488,84.246689 
	C570.751404,82.653061 566.847168,84.145432 564.654846,88.248062 
	C563.724609,89.988945 562.975647,91.868515 562.433594,93.767632 
	C560.246277,101.430336 558.221375,109.139336 556.043762,116.804893 
	C552.963989,127.646149 549.853882,138.479752 546.599731,149.269241 
	C546.251526,150.423782 544.858032,151.263031 543.949402,152.248550 
	C543.132568,151.144745 542.315796,150.040939 541.204895,148.171173 
M448.570435,186.978714 
	C437.673157,191.913467 429.777008,199.880661 427.057587,211.548950 
	C425.387573,218.714554 425.005981,226.408020 425.421783,233.786926 
	C426.429352,251.667053 437.650421,264.488312 453.301544,268.680847 
	C471.195801,273.474243 488.192749,265.539215 496.801147,249.686646 
	C502.016357,240.082809 501.313873,229.711014 500.876831,219.461868 
	C500.407806,208.462570 495.560913,199.323624 486.942566,192.438599 
	C475.550049,183.337341 462.789612,182.270325 448.570435,186.978714 
M541.341370,248.921692 
	C535.886719,229.581802 530.456238,210.235031 524.961304,190.906586 
	C523.487732,185.723282 519.685059,183.416458 514.815613,184.517700 
	C509.923859,185.623978 507.671387,189.219727 508.807617,194.766205 
	C509.672668,198.988785 510.925751,203.135437 512.088684,207.292801 
	C516.695801,223.763107 521.145508,240.281052 526.041504,256.665436 
	C528.547668,265.051941 536.142761,270.122925 544.508118,269.990662 
	C552.930664,269.857544 559.881958,265.075867 562.348999,256.662506 
	C568.190063,236.742554 573.702759,216.725311 579.225830,196.713623 
	C581.031494,190.171280 579.201477,186.064545 574.313904,184.613617 
	C569.150146,183.080719 565.121277,185.667480 563.126526,192.279694 
	C560.633728,200.542892 558.418030,208.890305 556.125305,217.213120 
	C553.259827,227.615036 550.528687,238.055450 547.504822,248.410706 
	C547.017151,250.080780 545.309204,251.394516 544.165344,252.872955 
	C543.322510,251.802933 542.479614,250.732910 541.341370,248.921692 
z"/>
<path fill="#ECE96A" opacity="1.000000" stroke="none" 
	d="
M216.437744,183.834656 
	C212.867523,165.805084 205.338684,150.314697 192.213562,137.855423 
	C176.746353,123.172859 158.466629,115.093285 136.959824,114.807487 
	C127.325706,114.679474 124.023140,111.661987 123.472992,102.125977 
	C123.301788,99.158508 123.431267,96.077347 124.050728,93.182541 
	C125.051430,88.506187 128.574051,86.303635 133.106812,85.998726 
	C137.421356,85.708504 141.770309,85.974503 146.096146,85.798904 
	C156.884613,85.360977 164.420944,77.603081 164.223206,67.274521 
	C164.031982,57.285339 156.307907,49.976875 145.624542,49.774734 
	C135.300278,49.579388 124.965958,49.672806 114.652374,49.245422 
	C108.224861,48.979069 105.255539,45.424004 105.006981,38.888355 
	C105.000641,38.721874 104.999664,38.555195 104.995522,38.388626 
	C104.614594,23.086445 105.915741,21.726648 121.045509,21.736704 
	C130.875916,21.743238 140.718506,21.479172 150.533966,21.874311 
	C167.768509,22.568115 180.009232,31.707764 187.868195,46.394161 
	C196.345535,62.236130 195.089859,78.126808 185.455521,93.272324 
	C183.812988,95.854439 184.153976,97.375488 186.880112,98.784225 
	C209.458740,110.451698 225.859680,128.152054 236.258011,151.144196 
	C247.118698,175.158600 249.278412,200.189957 242.281113,225.718445 
	C232.320923,262.056610 209.498764,287.585083 174.718048,301.230164 
	C139.777695,314.937866 105.786430,310.923157 73.958717,290.807861 
	C54.831791,278.719543 40.980278,261.910522 32.066467,241.277405 
	C27.191919,229.994141 23.491381,218.200531 23.865398,205.565140 
	C24.042793,199.572311 24.103882,193.559875 23.839277,187.573044 
	C22.921156,166.800095 42.013058,146.162476 61.509552,141.717697 
	C78.696503,137.799454 93.798958,141.340424 107.246544,152.372269 
	C109.895180,154.545090 111.405739,154.859940 114.301117,152.447250 
	C129.804031,139.528824 147.634323,136.078827 166.119675,143.768005 
	C185.985504,152.031418 196.890244,167.702484 198.204651,189.695602 
	C199.257904,207.319138 195.697205,223.447678 184.341599,237.353607 
	C174.628143,249.248611 162.289688,256.927185 147.140198,259.803009 
	C140.031586,261.152466 135.018112,257.213928 134.426208,250.019455 
	C134.235474,247.701294 134.303253,245.355850 134.353302,243.025055 
	C134.491364,236.592850 136.463562,233.620132 142.694626,231.628571 
	C152.799881,228.398727 160.955002,222.878952 165.716492,213.122269 
	C170.624237,203.065857 171.364868,192.624802 167.645340,182.097656 
	C164.913513,174.365967 155.871201,168.899734 147.000443,168.991852 
	C138.506775,169.080048 129.909225,174.750809 127.297569,182.567520 
	C126.057549,186.278915 125.455269,190.288742 125.151070,194.208908 
	C124.590889,201.427933 121.377426,204.773148 114.105576,204.922470 
	C111.773880,204.970337 109.439140,204.978607 107.107925,204.920059 
	C100.300636,204.749130 97.060745,201.684738 96.749207,194.820099 
	C96.330841,185.601715 94.151787,177.258011 85.573158,172.184128 
	C70.993607,163.560944 53.273468,173.120758 51.909672,190.252838 
	C48.978477,227.074799 71.431778,262.514923 105.959297,274.993805 
	C149.400452,290.694244 195.684982,268.504395 211.761230,226.975693 
	C217.144150,213.070374 218.125336,198.853592 216.437744,183.834656 
z"/>
<path fill="#FEF9F9" opacity="1.000000" stroke="none" 
	d="
M360.119049,263.637817 
	C359.786560,253.293396 359.579742,243.319870 359.470428,233.345291 
	C359.397400,226.683365 359.483429,220.019867 359.461487,213.357178 
	C359.435577,205.484909 355.726868,201.042908 348.955902,201.077774 
	C343.531952,201.105698 337.560211,204.460556 337.714417,213.459000 
	C337.979797,228.945282 337.742188,244.439743 337.794006,259.930481 
	C337.807404,263.927979 336.479065,267.167511 332.868561,268.986389 
	C327.355286,271.763763 321.045197,268.258453 320.978912,262.053864 
	C320.788483,244.234039 320.344727,226.382538 321.152863,208.595840 
	C322.007843,189.777695 345.761719,177.878647 362.107483,187.451050 
	C364.255341,188.708878 366.293762,190.153610 368.598755,191.652115 
	C374.300262,186.759415 380.921875,183.954163 388.566742,184.147842 
	C403.348206,184.522324 415.043854,194.917923 415.762665,209.934784 
	C416.582062,227.052597 416.163452,244.236740 416.014252,261.389709 
	C415.967743,266.735687 412.247498,270.032623 407.504883,269.920807 
	C402.586609,269.804840 399.288208,266.226624 399.257690,260.567291 
	C399.172394,244.743591 399.293274,228.918533 399.162170,213.095444 
	C399.087372,204.069321 392.336273,199.117935 384.169525,201.821396 
	C379.387848,203.404282 377.401794,206.607224 377.377808,213.209045 
	C377.326935,227.200699 377.360840,241.192657 377.352875,255.184494 
	C377.351807,257.016510 377.404755,258.855804 377.266937,260.679169 
	C376.878082,265.823914 374.080261,269.487976 369.902924,270.039642 
	C365.134796,270.669312 361.889740,268.573669 360.119049,263.637817 
z"/>
<path fill="#FDF9F9" opacity="1.000000" stroke="none" 
	d="
M284.512115,85.351387 
	C302.442322,82.406754 316.630035,87.806633 325.862640,103.209557 
	C328.729462,107.992401 330.415283,114.053734 330.761261,119.646080 
	C331.308624,128.493988 331.954712,137.432541 328.522278,146.246536 
	C322.374725,162.032562 305.020020,172.640808 288.355530,169.916367 
	C268.701233,166.703140 255.489914,151.571991 255.314972,131.643585 
	C255.142487,111.995590 255.251099,92.344833 255.292328,72.695404 
	C255.304657,66.814644 259.133301,62.617817 264.142517,62.752918 
	C269.043304,62.885098 272.134216,66.706902 272.219299,72.752953 
	C272.291809,77.908707 272.346985,83.064743 272.442993,88.220032 
	C272.448059,88.493065 272.761780,88.760345 273.165070,89.400650 
	C276.753815,88.110786 280.430206,86.789429 284.512115,85.351387 
M281.517334,104.862793 
	C278.813995,108.533089 274.800323,111.857452 273.718292,115.955795 
	C272.145416,121.913574 272.131287,128.458603 272.459473,134.700241 
	C272.920135,143.461349 280.668579,151.522934 289.001221,153.036697 
	C298.802429,154.817276 308.801117,150.462616 311.933502,141.372559 
	C314.023132,135.308380 314.345154,128.354263 314.148682,121.837906 
	C313.641632,105.017189 296.820343,96.093521 281.517334,104.862793 
z"/>
<path fill="#FDF9F9" opacity="1.000000" stroke="none" 
	d="
M425.066284,118.999054 
	C425.119720,103.017860 425.178040,87.536530 425.215881,72.055153 
	C425.225861,67.961403 427.012207,64.389999 430.818115,63.603676 
	C433.601501,63.028629 437.209106,64.158623 439.771179,65.674652 
	C441.249207,66.549232 441.900604,69.672707 442.015900,71.832451 
	C442.316711,77.467018 442.117218,83.128288 442.117218,89.610092 
	C443.951080,89.033806 445.304474,88.734566 446.555267,88.196724 
	C469.535126,78.315216 493.377014,88.259384 499.359039,112.523804 
	C504.584045,133.717514 501.795746,151.778381 484.605530,163.538681 
	C472.469574,171.841202 459.410370,172.585464 446.323975,166.167908 
	C433.324432,159.792953 426.714539,148.691055 425.368195,134.471893 
	C424.898926,129.515717 425.144470,124.491844 425.066284,118.999054 
M443.352844,138.888794 
	C446.052856,146.844330 451.540222,151.761902 459.800598,153.072418 
	C468.221985,154.408493 475.459869,151.634109 480.333740,144.621353 
	C485.964996,136.518845 485.221985,127.187378 483.701691,118.074463 
	C482.389923,110.211510 477.508789,104.647919 469.997375,102.372765 
	C461.880310,99.914169 454.102142,101.171974 448.033691,107.853668 
	C439.866028,116.846642 441.802917,127.565781 443.352844,138.888794 
z"/>
<path fill="#FDF9F9" opacity="1.000000" stroke="none" 
	d="
M601.975952,265.072906 
	C589.033875,256.985107 583.098999,245.547943 582.905640,230.714279 
	C582.751221,218.872040 583.382080,207.476517 591.646912,197.855942 
	C601.738220,186.109329 614.500854,181.988220 629.266113,185.176025 
	C644.033264,188.364212 653.302979,198.146576 657.395630,212.525635 
	C658.410278,216.090302 657.929565,220.133499 657.826965,223.948410 
	C657.723083,227.809158 654.821777,229.439651 651.595093,230.049576 
	C640.488037,232.149094 629.335388,234.006500 618.205872,235.988632 
	C612.821533,236.947571 607.450073,237.978851 601.464966,239.090256 
	C603.387512,246.014023 607.972046,249.839798 613.881409,251.912750 
	C622.150818,254.813599 629.513794,252.753815 635.895447,246.710846 
	C640.816345,242.051117 645.230469,241.801392 648.950562,245.625992 
	C652.695801,249.476425 652.585266,253.940704 648.156006,258.353851 
	C639.263428,267.214020 628.483887,271.359711 615.969482,269.543640 
	C611.296265,268.865509 606.831238,266.753082 601.975952,265.072906 
M630.178406,203.024750 
	C616.478516,197.737885 603.490356,203.850693 600.339966,217.068069 
	C599.314941,221.368271 600.161438,222.267456 604.482361,221.506653 
	C615.277344,219.605942 626.077698,217.734711 636.864136,215.786789 
	C637.896545,215.600357 638.846863,214.959259 641.432922,213.834152 
	C637.446228,209.854370 634.168945,206.582870 630.178406,203.024750 
z"/>
<path fill="#FEFAFA" opacity="1.000000" stroke="none" 
	d="
M383.172363,84.819412 
	C401.971039,87.747917 414.527130,100.798622 415.809845,120.025414 
	C416.728302,133.792053 416.141846,147.666031 416.022736,161.490341 
	C415.991241,165.148270 414.559021,168.320129 410.558472,169.585938 
	C406.606812,170.836258 403.265259,169.984222 400.931976,166.564423 
	C398.850006,163.512970 396.769379,165.517044 394.876740,166.396683 
	C379.135315,173.712799 361.791565,170.481216 350.200867,157.724075 
	C344.320923,151.252380 340.577118,143.623123 340.859619,134.720871 
	C341.132233,126.131134 340.465881,117.014908 343.111603,109.099129 
	C348.868195,91.875816 363.676300,83.622276 383.172363,84.819412 
M362.363159,146.076767 
	C371.671143,157.102829 390.822815,156.061874 396.745605,141.669861 
	C399.648224,134.616684 399.071686,125.712364 398.487885,117.761986 
	C397.906830,109.848885 390.432129,103.159248 383.298950,101.877007 
	C373.919006,100.190910 365.352356,102.197525 360.946472,110.911369 
	C355.228516,122.220314 355.128998,134.156845 362.363159,146.076767 
z"/>
<path fill="#FDF9F9" opacity="1.000000" stroke="none" 
	d="
M541.351929,148.554169 
	C542.315796,150.040939 543.132568,151.144745 543.949402,152.248550 
	C544.858032,151.263031 546.251526,150.423782 546.599731,149.269241 
	C549.853882,138.479752 552.963989,127.646149 556.043762,116.804893 
	C558.221375,109.139336 560.246277,101.430336 562.433594,93.767632 
	C562.975647,91.868515 563.724609,89.988945 564.654846,88.248062 
	C566.847168,84.145432 570.751404,82.653061 574.625488,84.246689 
	C579.018250,86.053658 581.043884,89.719017 579.890747,94.226707 
	C578.120117,101.148514 576.250671,108.046188 574.333374,114.929100 
	C566.765320,142.097855 559.171265,169.259354 551.556274,196.414948 
	C550.929504,198.650146 550.197571,200.873367 549.297302,203.010696 
	C547.447693,207.402100 543.175293,209.656357 539.385193,208.400986 
	C534.927185,206.924393 532.360229,202.418884 533.605713,197.647293 
	C535.619141,189.932755 537.873535,182.281311 539.991394,174.593658 
	C540.419067,173.041351 540.692505,171.446548 541.071716,169.712936 
	C531.481262,166.842834 526.842102,160.575928 524.506348,151.282990 
	C520.014526,133.412231 514.537476,115.789230 509.484467,98.059105 
	C509.165527,96.940002 508.953705,95.788025 508.734589,94.643196 
	C507.672821,89.095711 510.332703,84.773438 515.470032,83.673248 
	C519.428711,82.825470 523.673523,85.834343 525.015930,90.583527 
	C529.670959,107.051971 534.281250,123.533051 538.908936,140.009216 
	C539.673157,142.730179 540.439514,145.450531 541.351929,148.554169 
z"/>
<path fill="#FDF9F9" opacity="1.000000" stroke="none" 
	d="
M448.912659,186.796463 
	C462.789612,182.270325 475.550049,183.337341 486.942566,192.438599 
	C495.560913,199.323624 500.407806,208.462570 500.876831,219.461868 
	C501.313873,229.711014 502.016357,240.082809 496.801147,249.686646 
	C488.192749,265.539215 471.195801,273.474243 453.301544,268.680847 
	C437.650421,264.488312 426.429352,251.667053 425.421783,233.786926 
	C425.005981,226.408020 425.387573,218.714554 427.057587,211.548950 
	C429.777008,199.880661 437.673157,191.913467 448.912659,186.796463 
M446.068176,244.275284 
	C455.059509,257.085510 474.923462,256.125702 481.849365,241.579849 
	C485.922577,233.025146 485.757996,223.720154 482.853302,214.811951 
	C480.063568,206.256485 472.157196,200.961700 463.553467,200.861725 
	C454.966919,200.761963 446.665497,205.784225 443.906799,214.237762 
	C440.702209,224.057571 440.518463,234.122131 446.068176,244.275284 
z"/>
<path fill="#FDF9F9" opacity="1.000000" stroke="none" 
	d="
M541.489014,249.292282 
	C542.479614,250.732910 543.322510,251.802933 544.165344,252.872971 
	C545.309204,251.394516 547.017151,250.080780 547.504822,248.410706 
	C550.528687,238.055450 553.259827,227.615036 556.125305,217.213120 
	C558.418030,208.890305 560.633728,200.542892 563.126526,192.279694 
	C565.121277,185.667480 569.150146,183.080719 574.313904,184.613617 
	C579.201477,186.064545 581.031494,190.171280 579.225830,196.713623 
	C573.702759,216.725311 568.190063,236.742554 562.348999,256.662506 
	C559.881958,265.075867 552.930664,269.857544 544.508118,269.990662 
	C536.142761,270.122925 528.547668,265.051941 526.041504,256.665436 
	C521.145508,240.281052 516.695801,223.763107 512.088684,207.292801 
	C510.925751,203.135437 509.672668,198.988785 508.807617,194.766205 
	C507.671387,189.219727 509.923859,185.623978 514.815613,184.517700 
	C519.685059,183.416458 523.487732,185.723282 524.961304,190.906586 
	C530.456238,210.235031 535.886719,229.581802 541.489014,249.292282 
z"/>
<path fill="#FD6373" opacity="1.000000" stroke="none" 
	d="
M281.829163,104.661041 
	C296.820343,96.093521 313.641632,105.017189 314.148682,121.837906 
	C314.345154,128.354263 314.023132,135.308380 311.933502,141.372559 
	C308.801117,150.462616 298.802429,154.817276 289.001221,153.036697 
	C280.668579,151.522934 272.920135,143.461349 272.459473,134.700241 
	C272.131287,128.458603 272.145416,121.913574 273.718292,115.955795 
	C274.800323,111.857452 278.813995,108.533089 281.829163,104.661041 
z"/>
<path fill="#FD6473" opacity="1.000000" stroke="none" 
	d="
M443.189850,138.515167 
	C441.802917,127.565781 439.866028,116.846642 448.033691,107.853668 
	C454.102142,101.171974 461.880310,99.914169 469.997375,102.372765 
	C477.508789,104.647919 482.389923,110.211510 483.701691,118.074463 
	C485.221985,127.187378 485.964996,136.518845 480.333740,144.621353 
	C475.459869,151.634109 468.221985,154.408493 459.800598,153.072418 
	C451.540222,151.761902 446.052856,146.844330 443.189850,138.515167 
z"/>
<path fill="#FD6777" opacity="1.000000" stroke="none" 
	d="
M630.535034,203.168060 
	C634.168945,206.582870 637.446228,209.854370 641.432922,213.834152 
	C638.846863,214.959259 637.896545,215.600357 636.864136,215.786789 
	C626.077698,217.734711 615.277344,219.605942 604.482361,221.506653 
	C600.161438,222.267456 599.314941,221.368271 600.339966,217.068069 
	C603.490356,203.850693 616.478516,197.737885 630.535034,203.168060 
z"/>
<path fill="#FD6373" opacity="1.000000" stroke="none" 
	d="
M362.132019,145.794083 
	C355.128998,134.156845 355.228516,122.220314 360.946472,110.911369 
	C365.352356,102.197525 373.919006,100.190910 383.298950,101.877007 
	C390.432129,103.159248 397.906830,109.848885 398.487885,117.761986 
	C399.071686,125.712364 399.648224,134.616684 396.745605,141.669861 
	C390.822815,156.061874 371.671143,157.102829 362.132019,145.794083 
z"/>
<path fill="#FD6473" opacity="1.000000" stroke="none" 
	d="
M445.863525,243.963882 
	C440.518463,234.122131 440.702209,224.057571 443.906799,214.237762 
	C446.665497,205.784225 454.966919,200.761963 463.553467,200.861725 
	C472.157196,200.961700 480.063568,206.256485 482.853302,214.811951 
	C485.757996,223.720154 485.922577,233.025146 481.849365,241.579849 
	C474.923462,256.125702 455.059509,257.085510 445.863525,243.963882 
z"/>
</svg>