<svg version="1.1" id="Layer_1" xmlns="http://www.w3.org/2000/svg" xmlns:xlink="http://www.w3.org/1999/xlink" x="0px" y="0px"
	 width="100%" viewBox="0 0 621 290" enable-background="new 0 0 621 290" xml:space="preserve">
<path fill="#1FC2C9" opacity="1.000000" stroke="none" 
	d="
M622.000000,253.000000 
	C622.000000,265.658661 622.000000,278.317291 622.000000,290.958618 
	C415.000000,290.958618 208.000000,290.958618 1.000000,290.958618 
	C1.000000,280.257294 1.000000,269.597290 1.377066,258.459534 
	C4.074546,256.584106 6.279364,254.921738 8.740692,253.846680 
	C13.152088,251.919907 17.626997,250.009949 22.255600,248.760834 
	C24.738390,248.090805 27.596342,248.810928 30.558510,249.076462 
	C57.486015,279.109741 90.874870,291.625946 130.316574,286.046265 
	C200.075272,276.177795 241.606216,201.867401 214.176956,137.036957 
	C204.188675,113.429176 187.511322,95.935814 165.700745,83.004623 
	C166.078796,79.950294 166.169327,77.237617 166.225845,74.432144 
	C166.191833,74.339340 166.365417,74.244781 166.756775,74.345497 
	C175.151855,74.711143 175.010941,76.375397 174.980957,66.490570 
	C174.949738,56.196728 174.605087,45.901283 174.732986,35.610710 
	C174.787170,31.249496 176.333618,26.510323 169.268097,26.787249 
	C167.426910,21.874762 163.366272,19.293644 159.394058,16.271181 
	C157.875183,15.115465 158.869446,10.483072 154.683609,11.080606 
	C152.055038,11.455839 149.514267,12.446012 146.649887,13.118851 
	C145.894012,12.778474 145.422348,12.479539 144.728439,11.971372 
	C143.941116,11.548207 143.376038,11.334275 142.846619,11.115969 
	C142.882263,11.111595 142.886017,11.183348 142.909363,10.729967 
	C143.014160,3.022387 143.014175,3.008234 135.850769,3.002809 
	C122.022408,2.992337 108.194023,2.993508 94.365654,3.001811 
	C86.691330,3.006419 86.181236,3.663150 87.652588,11.560701 
	C87.659119,11.614262 87.555252,11.643560 87.077789,11.511252 
	C78.310616,10.441852 78.011658,10.696764 78.001060,18.756046 
	C77.996696,22.075920 78.162117,25.405457 77.962891,28.713289 
	C77.702957,33.029106 79.145531,35.261852 83.860100,35.156067 
	C85.113815,35.127930 87.628998,37.128323 87.492767,37.721390 
	C86.116547,43.713150 90.149506,42.992107 93.636757,42.995800 
	C106.033875,43.008938 118.431076,43.023327 130.828094,42.985023 
	C133.757736,42.975971 135.029495,44.291843 135.004990,47.213985 
	C134.946838,54.148552 134.999908,61.084049 134.835419,68.258331 
	C134.108444,68.665924 133.554062,68.834343 132.770035,68.716499 
	C130.856323,68.079422 129.181137,67.497971 127.486084,67.432693 
	C125.038460,67.338440 122.575607,67.732094 120.120705,67.714668 
	C115.372261,67.680977 110.618774,67.344894 105.882065,67.523514 
	C104.925346,67.559593 103.329971,69.271576 103.256653,70.298538 
	C103.097610,72.526138 103.732040,74.810387 104.022240,77.483208 
	C103.855186,81.671051 103.454758,85.458351 103.621140,89.220596 
	C103.859245,94.604828 107.692993,98.333542 113.080574,98.849365 
	C115.044563,99.037415 117.025528,99.048088 118.998901,99.558517 
	C118.841682,107.682648 117.832504,108.431473 110.019707,107.332382 
	C107.696587,107.005569 105.288597,107.281967 102.549660,107.281967 
	C103.404068,113.187080 103.563171,118.063248 96.460526,118.434326 
	C96.061996,118.455147 95.731300,119.091209 95.301270,119.304008 
	C92.617249,120.632240 90.027725,122.539894 87.187355,123.062569 
	C83.854279,123.675911 80.294167,122.943329 76.838844,123.034378 
	C72.983757,123.135963 69.753464,122.790222 69.828842,117.706215 
	C69.839706,116.972931 68.807701,116.224174 68.258301,115.482574 
	C67.567665,116.053085 66.702950,116.505096 66.218857,117.216217 
	C64.734261,119.396965 63.395664,121.677116 61.534676,123.966431 
	C55.748665,124.112099 50.428272,124.209946 44.766373,124.053459 
	C38.002110,123.581871 31.577156,123.211037 25.158808,123.302689 
	C24.122362,123.317497 22.204390,125.428864 22.250648,126.504112 
	C22.463020,131.440247 20.031275,132.034119 16.069788,131.094330 
	C15.189030,130.885376 14.166700,131.273178 13.209555,131.386230 
	C13.505924,131.735992 13.802295,132.085739 14.098665,132.435486 
	C12.418349,134.332153 11.035042,136.696411 8.979368,138.002090 
	C6.631896,139.493118 3.685903,140.041809 0.999999,141.000000 
	C1.000000,94.355675 1.000000,47.711346 1.000000,1.033508 
	C207.878571,1.033508 414.757172,1.033508 622.000000,1.033508 
	C622.000000,51.686981 622.000000,102.374832 621.622864,153.540649 
	C619.870239,154.499664 618.091919,154.597168 617.197754,155.536423 
	C614.870544,157.980927 612.692505,157.932159 609.376099,157.531387 
	C605.578430,157.072495 601.482300,158.955536 597.535034,159.901001 
	C594.060242,160.733276 590.656799,161.992294 587.140747,162.491501 
	C582.459412,163.156174 579.863586,160.848068 580.014832,155.985275 
	C580.140747,151.939850 577.903809,150.534378 574.360168,151.084518 
	C569.465637,151.844391 564.620178,152.929245 559.765137,153.930588 
	C557.339050,154.430954 554.301636,154.322693 552.647278,155.761795 
	C547.911621,159.881302 542.813965,162.295517 536.493225,162.267105 
	C535.984924,162.264816 535.468201,164.146439 534.605225,165.084839 
	C532.170105,165.009308 530.085144,165.001541 527.969604,164.647064 
	C526.867981,163.403473 525.393799,161.547485 524.803833,161.795425 
	C523.238342,162.453308 521.295227,163.805527 520.881836,165.270752 
	C520.088806,168.081467 520.250305,171.161438 519.984375,174.527222 
	C516.462158,171.762268 517.714294,168.366730 517.916748,165.064926 
	C518.022705,163.337524 517.256470,161.556656 516.890137,159.415558 
	C523.975525,133.641953 531.075134,108.258339 538.119568,82.859421 
	C539.790466,76.835052 538.787231,74.557442 533.741455,71.101303 
	C534.907349,70.393463 535.743774,69.563423 536.636353,69.497734 
	C544.506165,68.918686 552.382324,68.396950 560.264771,68.036507 
	C562.881104,67.916862 564.251282,67.188171 565.407166,64.501343 
	C566.241882,62.561169 568.956360,60.596748 571.102051,60.232716 
	C575.151550,59.545704 579.420837,60.262222 583.545349,59.854847 
	C585.113403,59.699966 587.472046,58.329861 587.848877,57.039948 
	C589.034424,52.981403 591.665833,51.970879 595.362427,51.979202 
	C597.482422,51.983978 599.603027,51.704136 601.723389,51.552429 
	C601.039246,50.371929 600.432373,50.075584 599.821716,50.067631 
	C574.654114,49.739658 549.478760,50.688511 524.333557,48.150005 
	C512.127441,46.917755 499.756073,47.097553 487.457825,47.045666 
	C455.367340,46.910271 423.275909,46.999699 391.184875,46.999554 
	C347.554321,46.999359 303.923737,46.994896 260.293182,47.004444 
	C254.648972,47.005680 248.999832,47.243599 243.361938,47.073914 
	C237.654099,46.902134 237.019531,47.287868 237.010086,53.044685 
	C236.982483,69.864052 236.999069,86.683502 236.999588,103.502914 
	C237.000046,117.990921 236.883591,132.481033 237.141235,146.964493 
	C237.176758,148.961304 238.713547,151.265396 240.194138,152.818069 
	C242.049759,154.764038 244.770111,155.863068 246.745804,157.722336 
	C249.435669,160.253677 251.739105,160.241180 252.577652,156.804382 
	C253.385056,153.495270 254.814255,151.962555 258.202118,151.726852 
	C259.184570,151.658478 260.067474,150.158844 261.350342,149.427673 
	C277.422180,155.299530 291.789429,150.571640 303.065033,136.257202 
	C304.348297,139.080780 305.393585,138.721436 306.123077,136.318405 
	C307.351318,132.272507 310.609741,131.366852 313.909668,132.266373 
	C315.799194,132.781448 317.159363,135.238541 319.039520,137.100220 
	C319.970764,136.496582 321.300690,135.634506 322.857147,134.993271 
	C333.517090,150.611008 351.738953,157.116867 371.926605,146.426788 
	C373.669403,147.993484 375.101624,150.067291 377.059723,150.891083 
	C382.523560,153.189774 387.254333,149.841843 387.568237,143.412949 
	C387.965088,135.285034 387.939240,127.136497 388.415466,119.062302 
	C391.383850,119.083336 394.032471,119.038933 396.786560,119.423233 
	C397.876770,134.052338 408.601807,147.953812 421.785400,150.606644 
	C444.499878,155.177338 460.805176,143.986633 465.303558,122.146149 
	C467.831451,109.872635 467.645752,96.876541 459.175262,86.031479 
	C460.848145,85.353729 462.312958,84.931633 463.393646,84.042625 
	C466.948883,81.117989 470.364929,78.024170 473.845428,75.384018 
	C473.833435,77.875221 473.339783,80.103065 473.861053,82.060638 
	C478.470673,99.370934 483.323059,116.616447 487.969788,133.917068 
	C490.189484,142.181427 493.803711,149.119827 502.911377,151.381348 
	C500.252686,161.102615 497.671814,170.539352 494.767639,179.852570 
	C493.108673,178.853485 491.773041,177.977905 490.437347,176.910339 
	C490.437256,176.718338 490.821198,176.713562 490.714691,176.416962 
	C490.416107,175.747787 490.224060,175.375244 489.845276,174.692688 
	C489.087952,172.836700 488.592407,171.257797 487.932312,169.750977 
	C486.109253,165.589478 482.271179,163.590347 478.359924,164.685577 
	C474.768951,165.691132 472.808990,169.737259 473.665985,174.294525 
	C474.207611,177.174774 474.693481,180.065506 474.916565,183.053223 
	C471.039368,182.287109 467.154419,180.458832 464.829956,185.956604 
	C464.829956,183.522644 464.829956,181.088699 464.829956,177.989075 
	C463.126923,178.734238 461.692200,179.362000 460.028503,179.729996 
	C456.429321,173.611328 451.026917,170.276398 445.147888,167.419510 
	C424.820312,157.541428 395.691498,173.109024 396.816040,197.085800 
	C397.126831,203.713272 396.992706,210.361588 396.695953,217.013474 
	C394.632416,217.796829 392.935608,218.567047 391.864258,219.053360 
	C390.518097,216.961624 389.243744,214.981445 387.876648,212.540329 
	C387.764282,205.423981 387.786346,198.768143 387.715485,192.113297 
	C387.603180,181.568100 383.851349,172.866592 374.245209,167.674713 
	C364.519806,162.418350 355.121765,163.608429 346.010803,169.709122 
	C344.734985,170.563416 341.754517,170.473984 340.531281,169.545685 
	C332.370728,163.352829 323.765594,162.850723 314.753448,166.981674 
	C305.593170,171.180557 299.863281,177.800171 300.007996,188.558060 
	C300.139954,198.369125 299.915161,208.184998 299.442993,217.995560 
	C298.046722,217.910324 297.045013,217.891876 296.065186,217.735855 
	C290.014038,216.772125 289.552734,217.108749 288.614166,223.149841 
	C288.517365,223.772751 288.349426,224.543091 287.926514,224.931503 
	C284.838959,227.767441 281.677673,230.523163 278.436798,233.395416 
	C277.844330,231.899948 276.987457,229.737015 276.016479,227.286102 
	C270.734863,229.747452 266.173950,233.157547 261.221283,233.879288 
	C253.831116,234.956238 247.389771,237.602814 240.901550,240.929688 
	C237.044647,242.907349 236.944550,245.888062 237.097672,249.239517 
	C237.272003,253.055161 240.167221,252.922546 242.898285,253.004135 
	C253.171112,253.311005 263.441620,253.715820 273.716217,253.926208 
	C275.803619,253.968948 277.905029,253.326538 280.399994,253.000000 
	C281.866669,253.000000 282.933319,253.000000 284.352295,253.204193 
	C288.803040,253.272247 292.901520,253.136124 297.375000,253.000000 
	C298.500000,253.000000 299.250000,253.000000 300.345703,253.202240 
	C304.127625,253.269638 307.563812,253.134827 311.468658,253.000000 
	C329.292114,252.999420 346.646912,252.998856 364.470276,252.998260 
	C410.293518,252.997330 455.648254,252.996445 501.335327,252.996109 
	C502.110779,252.996307 502.553894,252.995941 503.434753,252.996643 
	C505.915436,252.996841 507.958344,252.995987 510.469849,252.995667 
	C547.958923,252.997467 584.979492,252.998734 622.000000,253.000000 
z"/>
<path fill="#24C5CC" opacity="1.000000" stroke="none" 
	d="
M534.955322,165.152588 
	C535.468201,164.146439 535.984924,162.264816 536.493225,162.267105 
	C542.813965,162.295517 547.911621,159.881302 552.647278,155.761795 
	C554.301636,154.322693 557.339050,154.430954 559.765137,153.930588 
	C564.620178,152.929245 569.465637,151.844391 574.360168,151.084518 
	C577.903809,150.534378 580.140747,151.939850 580.014832,155.985275 
	C579.863586,160.848068 582.459412,163.156174 587.140747,162.491501 
	C590.656799,161.992294 594.060242,160.733276 597.535034,159.901001 
	C601.482300,158.955536 605.578430,157.072495 609.376099,157.531387 
	C612.692505,157.932159 614.870544,157.980927 617.197754,155.536423 
	C618.091919,154.597168 619.870239,154.499664 621.622864,154.009308 
	C622.000000,168.687561 622.000000,183.375122 621.673767,198.707977 
	C619.687866,203.128006 619.753662,208.786255 612.856079,206.674759 
	C612.427246,205.444931 612.142212,204.540955 611.921143,203.197693 
	C611.335815,196.837250 610.686584,190.916092 610.187744,184.809723 
	C609.911438,184.078766 609.484802,183.532990 608.813660,182.733673 
	C603.369385,173.943665 596.504761,167.986816 586.400391,165.376587 
	C573.456848,162.032898 552.385986,168.266205 545.351807,183.622482 
	C541.787842,191.402939 540.400574,199.267731 540.964905,207.686890 
	C541.452209,214.955475 543.117676,221.802887 546.843323,227.842102 
	C545.162781,227.936630 543.800110,228.143799 542.437439,228.350952 
	C542.515747,228.817245 542.594116,229.283539 542.672485,229.749817 
	C543.978149,230.191895 545.283813,230.633972 546.987854,231.210892 
	C538.915344,236.802032 533.690369,236.509644 527.330566,230.705017 
	C526.430603,229.883621 525.078003,229.558029 523.942017,228.613800 
	C524.819763,224.949966 525.681458,221.672897 526.562561,218.401047 
	C530.306091,204.500244 533.880188,190.550049 537.899048,176.729263 
	C539.280212,171.979294 538.713623,168.309540 534.955322,165.152588 
M541.498413,164.474884 
	C541.498413,164.474884 541.511902,164.513077 541.498413,164.474884 
z"/>
<path fill="#27C8CE" opacity="1.000000" stroke="none" 
	d="
M523.934937,229.002975 
	C525.078003,229.558029 526.430603,229.883621 527.330566,230.705017 
	C533.690369,236.509644 538.915344,236.802032 546.987854,231.210892 
	C545.283813,230.633972 543.978149,230.191895 542.672485,229.749817 
	C542.594116,229.283539 542.515747,228.817245 542.437439,228.350952 
	C543.800110,228.143799 545.162781,227.936630 547.116638,228.029175 
	C550.443970,231.179840 552.720215,234.805862 555.995056,236.748962 
	C570.993408,245.648102 585.925171,247.694138 601.672729,233.742752 
	C605.612671,230.252258 606.999756,226.815628 605.389038,222.021576 
	C608.890137,221.422928 612.006287,221.055634 614.965332,220.165710 
	C617.406738,219.431442 619.662170,218.078674 622.000000,216.999985 
	C622.000000,228.687561 622.000000,240.375122 622.000000,252.531342 
	C584.979492,252.998734 547.958923,252.997467 510.329407,252.682953 
	C506.819824,250.342163 504.025330,248.254578 505.398315,243.953156 
	C515.657227,243.569992 520.344727,236.955750 523.934937,229.002975 
z"/>
<path fill="#1EC0C5" opacity="1.000000" stroke="none" 
	d="
M0.999999,141.468658 
	C3.685903,140.041809 6.631896,139.493118 8.979368,138.002090 
	C11.035042,136.696411 12.418349,134.332153 14.098665,132.435486 
	C13.802295,132.085739 13.505924,131.735992 13.209555,131.386230 
	C14.166700,131.273178 15.189030,130.885376 16.069788,131.094330 
	C20.031275,132.034119 22.463020,131.440247 22.250648,126.504112 
	C22.204390,125.428864 24.122362,123.317497 25.158808,123.302689 
	C31.577156,123.211037 38.002110,123.581871 44.494164,124.318802 
	C30.237568,127.747231 19.536835,135.772919 12.011020,148.133514 
	C2.771101,163.309387 4.517427,179.909454 6.609307,196.270340 
	C9.143060,216.087173 18.041212,233.314377 30.284998,248.903748 
	C27.596342,248.810928 24.738390,248.090805 22.255600,248.760834 
	C17.626997,250.009949 13.152088,251.919907 8.740692,253.846680 
	C6.279364,254.921738 4.074546,256.584106 1.377066,257.990906 
	C1.000000,219.312439 1.000000,180.624878 0.999999,141.468658 
z"/>
<path fill="#1FC2C9" opacity="1.000000" stroke="none" 
	d="
M622.000000,216.532043 
	C619.662170,218.078674 617.406738,219.431442 614.965332,220.165710 
	C612.006287,221.055634 608.890137,221.422928 605.168335,221.917938 
	C604.210815,221.621521 604.043823,221.351303 604.078247,220.630173 
	C605.389099,218.179138 606.190002,214.890533 607.928650,214.282242 
	C611.801941,212.927078 613.208069,210.758636 613.000000,207.000610 
	C619.753662,208.786255 619.687866,203.128006 621.673767,199.176636 
	C622.000000,204.688034 622.000000,210.376083 622.000000,216.532043 
z"/>
<path fill="#EAEB6B" opacity="1.000000" stroke="none" 
	d="
M30.558510,249.076462 
	C18.041212,233.314377 9.143060,216.087173 6.609307,196.270340 
	C4.517427,179.909454 2.771101,163.309387 12.011020,148.133514 
	C19.536835,135.772919 30.237568,127.747231 44.835667,124.573135 
	C50.428272,124.209946 55.748665,124.112099 61.892288,124.115005 
	C73.277046,126.637939 82.799843,131.201508 91.103096,138.317993 
	C98.760742,130.681976 107.822014,126.264015 118.328583,124.190750 
	C118.573616,124.210785 119.003036,123.971245 119.251160,123.992523 
	C119.499283,124.013794 119.980637,123.885880 120.435135,123.945396 
	C123.948952,123.893715 127.008270,123.782524 130.421570,123.769798 
	C131.506989,123.870590 132.238464,123.872917 133.317383,123.967567 
	C134.373322,124.179695 135.081787,124.299507 136.094604,124.636726 
	C149.245087,127.353462 159.286530,134.140839 166.955582,144.663666 
	C175.958954,157.017334 177.044342,171.048264 176.048889,185.636047 
	C174.321564,210.949432 151.708664,236.016891 126.876839,239.938354 
	C119.211037,241.148926 114.726707,237.594559 114.312454,229.883087 
	C114.187599,227.558945 114.204712,225.216675 114.327278,222.891708 
	C114.667130,216.444824 116.603691,214.383804 122.691360,212.113373 
	C126.824715,210.571793 130.663635,208.240799 134.916748,206.142395 
	C136.540741,204.713257 137.882217,203.404541 139.450775,201.999405 
	C139.943008,201.682220 140.103790,201.401672 140.450653,200.891388 
	C142.663147,197.190720 144.585159,193.659943 146.681656,189.828461 
	C147.194733,187.684586 147.533325,185.841431 147.993927,183.598450 
	C148.029266,178.472870 147.942627,173.747116 147.899658,168.802521 
	C147.950668,168.271973 147.856277,167.994934 147.631439,167.528473 
	C147.602722,167.304367 147.271637,166.996841 147.252930,166.696930 
	C146.991516,165.856522 146.748810,165.316055 146.417633,164.431885 
	C144.834686,162.080429 143.340225,160.072693 141.702637,157.770233 
	C139.711380,156.302689 137.863281,155.129868 135.829407,153.730652 
	C135.095688,153.356812 134.547745,153.209381 133.625916,152.875916 
	C126.678635,150.834869 120.466118,151.245697 114.557968,155.742157 
	C112.110947,158.566559 109.990013,161.263992 107.644379,164.156799 
	C106.994781,165.635818 106.569878,166.919464 106.027435,168.623657 
	C105.971924,169.613739 106.033958,170.183273 106.124161,170.758530 
	C106.152328,170.764267 106.104668,170.804123 105.809265,171.021332 
	C105.433098,173.157364 105.352333,175.076218 105.191154,177.324402 
	C105.137413,178.103531 105.164093,178.553345 105.060181,179.362335 
	C104.887184,180.477448 104.844780,181.233383 104.517609,182.061356 
	C103.738533,182.722122 103.244232,183.310837 102.415428,184.037354 
	C99.825378,185.014725 97.592056,186.481171 95.309601,186.562103 
	C90.700386,186.725571 86.064484,186.136429 81.235794,185.588272 
	C79.739960,184.097855 78.447914,182.876846 77.134850,181.357315 
	C76.787811,180.351349 76.461792,179.643890 76.173241,178.567810 
	C76.137444,177.466125 76.064178,176.733078 76.077354,175.565704 
	C76.198006,162.288574 68.660881,153.012253 57.212551,151.807129 
	C45.467953,150.570816 35.285576,158.123398 33.417355,170.141327 
	C32.665611,174.977142 33.349564,180.036163 33.313175,185.380676 
	C33.576195,187.844727 33.906143,189.921692 34.196060,192.320343 
	C34.409241,193.436249 34.662449,194.230469 34.902737,195.364578 
	C34.985363,196.145477 35.080910,196.586487 35.165993,197.356079 
	C35.402405,198.023285 35.649273,198.361908 36.019398,198.889374 
	C36.142658,199.078201 36.570663,199.220428 36.603149,199.272156 
	C36.635639,199.323898 36.733761,199.251099 36.575787,199.637482 
	C37.152939,202.712326 37.888065,205.400787 38.685322,208.424988 
	C39.146229,209.553360 39.545010,210.346024 39.972473,211.473724 
	C40.950661,213.540161 41.900162,215.271530 42.904480,217.345154 
	C43.933445,219.217148 44.907593,220.746902 45.924381,222.484985 
	C45.967026,222.693344 46.267658,222.994217 46.372158,223.291626 
	C47.635765,225.086594 48.794876,226.584152 50.061958,228.394287 
	C51.771187,230.160614 53.372440,231.614365 55.035515,233.407379 
	C55.527794,234.428635 55.844776,235.226349 56.405132,235.775864 
	C76.221085,255.208954 100.271240,262.849548 127.245537,258.312866 
	C171.464508,250.875839 199.894287,212.275467 193.769028,167.801239 
	C189.396729,136.054855 171.019485,114.542572 140.590530,104.005318 
	C133.662430,101.606186 126.209900,100.721451 118.998749,99.139679 
	C117.025528,99.048088 115.044563,99.037415 113.080574,98.849365 
	C107.692993,98.333542 103.859245,94.604828 103.621140,89.220596 
	C103.454758,85.458351 103.855186,81.671051 104.269775,77.246902 
	C106.830544,72.364273 110.481285,71.074196 115.158821,70.884964 
	C121.121399,70.643730 127.054100,69.664108 132.999680,69.002769 
	C133.554062,68.834343 134.108444,68.665924 135.165405,68.173767 
	C142.691025,62.182556 145.079544,55.046494 142.421173,47.673965 
	C139.784836,40.362549 133.182053,35.988400 124.557343,35.945431 
	C115.259293,35.899105 105.960793,35.902054 96.662666,35.934937 
	C91.906296,35.951759 87.197983,34.337952 86.601524,29.631096 
	C85.858742,23.769663 87.145126,17.651093 87.555252,11.643560 
	C87.555252,11.643560 87.659119,11.614262 87.920006,11.344131 
	C90.230675,10.068770 92.300804,8.156378 94.327026,8.201815 
	C110.545151,8.565491 126.976807,5.852558 142.886017,11.183348 
	C142.886017,11.183348 142.882263,11.111595 143.037720,11.363059 
	C143.779007,11.803217 144.364838,11.991911 144.950684,12.180604 
	C145.422348,12.479539 145.894012,12.778474 146.860077,13.377907 
	C167.542465,24.574402 178.123337,49.572830 166.365417,74.244781 
	C166.365417,74.244781 166.191833,74.339340 166.022369,74.679543 
	C164.544327,77.103539 163.235748,79.187332 161.725876,81.591690 
	C163.104141,82.247528 164.258682,82.796906 165.413223,83.346283 
	C187.511322,95.935814 204.188675,113.429176 214.176956,137.036957 
	C241.606216,201.867401 200.075272,276.177795 130.316574,286.046265 
	C90.874870,291.625946 57.486015,279.109741 30.558510,249.076462 
z"/>
<path fill="#1CC0C7" opacity="1.000000" stroke="none" 
	d="
M260.996002,149.315338 
	C260.067474,150.158844 259.184570,151.658478 258.202118,151.726852 
	C254.814255,151.962555 253.385056,153.495270 252.577652,156.804382 
	C251.739105,160.241180 249.435669,160.253677 246.745804,157.722336 
	C244.770111,155.863068 242.049759,154.764038 240.194138,152.818069 
	C238.713547,151.265396 237.176758,148.961304 237.141235,146.964493 
	C236.883591,132.481033 237.000046,117.990921 236.999588,103.502914 
	C236.999069,86.683502 236.982483,69.864052 237.010086,53.044685 
	C237.019531,47.287868 237.654099,46.902134 243.361938,47.073914 
	C248.999832,47.243599 254.648972,47.005680 260.293182,47.004444 
	C303.923737,46.994896 347.554321,46.999359 391.184875,46.999554 
	C423.275909,46.999699 455.367340,46.910271 487.457825,47.045666 
	C499.756073,47.097553 512.127441,46.917755 524.333557,48.150005 
	C549.478760,50.688511 574.654114,49.739658 599.821716,50.067631 
	C600.432373,50.075584 601.039246,50.371929 601.723389,51.552429 
	C599.603027,51.704136 597.482422,51.983978 595.362427,51.979202 
	C591.665833,51.970879 589.034424,52.981403 587.848877,57.039948 
	C587.472046,58.329861 585.113403,59.699966 583.545349,59.854847 
	C579.420837,60.262222 575.151550,59.545704 571.102051,60.232716 
	C568.956360,60.596748 566.241882,62.561169 565.407166,64.501343 
	C564.251282,67.188171 562.881104,67.916862 560.264771,68.036507 
	C552.382324,68.396950 544.506165,68.918686 536.636353,69.497734 
	C535.743774,69.563423 534.907349,70.393463 533.393982,71.159119 
	C531.565430,71.471649 530.387878,71.494133 528.983154,71.286377 
	C527.837830,71.701729 526.919739,72.347321 525.865723,73.296005 
	C525.307678,74.110764 524.885498,74.622414 524.363770,74.821930 
	C520.974548,73.106316 518.361023,74.910164 518.194458,78.699081 
	C517.997314,83.183281 515.879944,84.811684 511.714661,83.600204 
	C507.659576,82.420792 504.632507,83.123192 502.926514,87.508263 
	C502.620941,88.293785 499.692749,88.992729 499.561310,88.774887 
	C496.744965,84.106758 494.361908,87.504913 491.656494,88.812309 
	C491.248413,87.499413 491.071259,86.422745 490.815125,85.113632 
	C490.607574,84.578384 490.443176,84.296448 490.122894,83.689255 
	C489.833801,82.631027 489.664825,81.918915 489.745514,80.957451 
	C490.168854,78.524582 490.159393,76.306725 490.560791,74.165901 
	C491.109100,71.241707 489.755249,70.050278 487.147247,70.164284 
	C485.404358,70.240471 483.685364,70.863266 481.578857,71.317886 
	C478.214539,71.506958 475.198639,71.561508 473.834412,74.995331 
	C470.364929,78.024170 466.948883,81.117989 463.393646,84.042625 
	C462.312958,84.931633 460.848145,85.353729 458.881714,85.875130 
	C445.780518,69.329498 429.724792,69.281578 411.956177,76.093491 
	C411.956177,70.277786 412.134583,64.969711 411.901886,59.679726 
	C411.702179,55.140247 407.427948,50.938240 403.141235,51.204437 
	C399.225006,51.447632 396.916595,53.822495 396.777710,58.087196 
	C396.547852,58.499195 396.580261,58.778141 396.775330,59.500797 
	C396.744781,79.642998 396.712921,99.318764 396.681061,118.994537 
	C394.032471,119.038933 391.383850,119.083336 388.346924,118.622658 
	C388.002991,115.745819 388.047424,113.374069 388.401123,111.048790 
	C389.753937,110.134621 390.797424,109.173965 391.840912,108.213303 
	C390.545441,107.809990 389.249939,107.406677 387.845398,106.613586 
	C387.611450,104.884308 387.486603,103.544823 387.564636,102.047081 
	C387.560333,101.259567 387.353119,100.630295 387.021057,99.697090 
	C386.847534,98.959679 386.798889,98.526199 387.014435,97.921036 
	C389.311340,94.493347 387.130066,93.241997 384.358459,91.919281 
	C385.059967,88.018684 381.085175,88.005646 379.839691,85.951614 
	C375.339600,78.530167 368.644318,74.696358 360.229462,72.625877 
	C340.107117,67.674721 320.950226,81.964836 318.922974,100.652382 
	C318.315155,106.254982 317.719299,112.011574 318.357819,117.554794 
	C319.028595,123.377731 317.476257,129.991669 322.630585,134.772430 
	C321.300690,135.634506 319.970764,136.496582 319.039520,137.100220 
	C317.159363,135.238541 315.799194,132.781448 313.909668,132.266373 
	C310.609741,131.366852 307.351318,132.272507 306.123077,136.318405 
	C305.393585,138.721436 304.348297,139.080780 303.144958,135.917877 
	C312.010681,118.771530 311.677551,102.821320 302.121704,86.339310 
	C294.318146,72.879562 271.441467,68.308540 259.561493,74.792595 
	C258.355469,75.450851 256.925140,75.698189 254.994003,76.335991 
	C254.994003,70.595757 255.093338,65.472298 254.964874,60.354557 
	C254.846191,55.626995 252.043198,52.362785 248.120270,52.022789 
	C242.079941,51.499271 239.917252,53.589432 239.884003,60.766476 
	C239.795395,79.892822 239.706390,99.022865 240.023270,118.144714 
	C240.099823,122.764923 241.184235,127.566666 242.790817,131.921295 
	C245.965240,140.525528 252.322983,146.240906 260.996002,149.315338 
M511.883606,62.165558 
	C512.345520,61.900082 512.807373,61.634605 513.269287,61.369125 
	C512.984070,61.071609 512.698914,60.774094 512.413696,60.476570 
	C512.133545,60.927006 511.853424,61.377445 511.883606,62.165558 
M498.048218,78.631767 
	C497.611267,78.870636 497.174286,79.109505 496.737335,79.348389 
	C497.036499,79.654533 497.335693,79.960678 497.634888,80.266815 
	C497.881805,79.834007 498.128723,79.401199 498.048218,78.631767 
M390.430054,114.497208 
	C390.763458,114.630096 391.096893,114.762985 391.430298,114.895874 
	C391.472626,114.746140 391.563293,114.470131 391.550201,114.465118 
	C391.216736,114.337410 390.872467,114.238106 390.430054,114.497208 
z"/>
<path fill="#1EC1C7" opacity="1.000000" stroke="none" 
	d="
M134.634232,206.262833 
	C130.663635,208.240799 126.824715,210.571793 122.691360,212.113373 
	C116.603691,214.383804 114.667130,216.444824 114.327278,222.891708 
	C114.204712,225.216675 114.187599,227.558945 114.312454,229.883087 
	C114.726707,237.594559 119.211037,241.148926 126.876839,239.938354 
	C151.708664,236.016891 174.321564,210.949432 176.048889,185.636047 
	C177.044342,171.048264 175.958954,157.017334 166.955582,144.663666 
	C159.286530,134.140839 149.245087,127.353462 136.437714,124.367401 
	C137.916534,123.588821 139.350510,123.086395 140.797852,123.044327 
	C145.275681,122.914162 149.805771,123.323273 154.215698,122.752029 
	C155.910156,122.532524 158.283310,120.462898 158.676498,118.833206 
	C159.390244,115.874847 156.840485,115.036682 154.234634,115.021568 
	C151.911041,115.008087 149.461884,115.442810 147.304703,114.837158 
	C145.661606,114.375839 143.482117,112.813232 143.131332,111.357437 
	C142.272141,107.791649 140.277756,106.936920 137.043793,106.973312 
	C133.831680,107.009476 132.293915,108.210373 131.798706,111.559395 
	C131.619110,112.773972 129.289261,114.666458 128.071548,114.571396 
	C119.646126,113.913635 111.994591,115.158577 105.728050,122.164238 
	C109.936661,122.847702 114.010101,123.509209 118.083549,124.170723 
	C107.822014,126.264015 98.760742,130.681976 91.103096,138.317993 
	C82.799843,131.201508 73.277046,126.637939 62.357910,124.067184 
	C63.395664,121.677116 64.734261,119.396965 66.218857,117.216217 
	C66.702950,116.505096 67.567665,116.053085 68.258301,115.482574 
	C68.807701,116.224174 69.839706,116.972931 69.828842,117.706215 
	C69.753464,122.790222 72.983757,123.135963 76.838844,123.034378 
	C80.294167,122.943329 83.854279,123.675911 87.187355,123.062569 
	C90.027725,122.539894 92.617249,120.632240 95.301270,119.304008 
	C95.731300,119.091209 96.061996,118.455147 96.460526,118.434326 
	C103.563171,118.063248 103.404068,113.187080 102.549660,107.281967 
	C105.288597,107.281967 107.696587,107.005569 110.019707,107.332382 
	C117.832504,108.431473 118.841682,107.682648 118.998901,99.558517 
	C126.209900,100.721451 133.662430,101.606186 140.590530,104.005318 
	C171.019485,114.542572 189.396729,136.054855 193.769028,167.801239 
	C199.894287,212.275467 171.464508,250.875839 127.245537,258.312866 
	C100.271240,262.849548 76.221085,255.208954 56.405132,235.775864 
	C55.844776,235.226349 55.527794,234.428635 55.156811,233.090698 
	C59.845745,229.000183 63.844742,224.036087 70.821968,226.470963 
	C71.509224,226.710800 73.256599,225.480606 73.719788,224.541901 
	C76.875351,218.146622 81.196198,213.919144 89.016640,214.961594 
	C92.038719,215.364441 94.350159,214.469116 95.819000,211.263809 
	C98.450020,205.522339 107.995514,200.542389 114.382599,200.847900 
	C116.307510,200.939972 118.283089,200.306717 120.212852,199.898788 
	C125.342461,198.814453 130.459747,197.671860 135.581924,196.552414 
	C135.855194,197.165039 136.128464,197.777649 136.401733,198.390274 
	C134.934418,200.422623 133.467117,202.454987 131.804642,204.757675 
	C132.714783,205.241806 133.674515,205.752319 134.634232,206.262833 
z"/>
<path fill="#F9FDFD" opacity="1.000000" stroke="none" 
	d="
M299.847656,217.998749 
	C299.915161,208.184998 300.139954,198.369125 300.007996,188.558060 
	C299.863281,177.800171 305.593170,171.180557 314.753448,166.981674 
	C323.765594,162.850723 332.370728,163.352829 340.531281,169.545685 
	C341.754517,170.473984 344.734985,170.563416 346.010803,169.709122 
	C355.121765,163.608429 364.519806,162.418350 374.245209,167.674713 
	C383.851349,172.866592 387.603180,181.568100 387.715485,192.113297 
	C387.786346,198.768143 387.764282,205.423981 387.777710,212.999969 
	C387.743103,220.722275 387.874390,227.530029 387.618347,234.323166 
	C387.491547,237.687363 387.354950,241.383530 383.248199,242.877060 
	C377.595520,244.932800 374.777161,243.430069 372.194519,236.474472 
	C372.256836,221.231369 372.332855,206.449890 372.248810,191.669312 
	C372.207428,184.392227 368.007324,179.814041 361.691895,179.749023 
	C355.830750,179.688660 351.863007,184.443787 351.853760,191.607056 
	C351.834045,206.886414 351.838196,222.165817 351.564148,237.711853 
	C349.461517,239.959259 347.627289,241.940018 345.394104,243.914093 
	C342.387482,242.939926 339.779877,241.972458 337.118622,240.673157 
	C336.731445,239.551956 336.397919,238.762589 336.061829,237.516571 
	C335.987305,233.706329 335.915314,230.352768 335.911865,226.535004 
	C335.990906,214.242233 336.062714,202.413269 335.986328,190.585266 
	C335.947449,184.567047 332.039551,180.313797 326.410187,179.800369 
	C320.721741,179.281540 317.391602,182.094711 315.766876,188.835190 
	C315.469513,189.273666 315.480591,189.543762 315.529175,190.270905 
	C315.467651,204.161362 315.537750,217.587799 315.493652,231.427979 
	C315.356476,233.559494 315.333466,235.277222 315.179199,237.310181 
	C315.026611,238.079178 315.005280,238.532944 314.992004,238.993347 
	C315.000000,239.000000 314.984924,238.984207 314.727417,239.217194 
	C314.280670,240.566055 314.091461,241.681931 313.490601,242.768738 
	C303.187012,244.154846 301.912140,243.600677 299.934265,236.534790 
	C299.945648,230.046204 299.896637,224.022476 299.847656,217.998749 
z"/>
<path fill="#FCFEFE" opacity="1.000000" stroke="none" 
	d="
M261.350342,149.427673 
	C252.322983,146.240906 245.965240,140.525528 242.790817,131.921295 
	C241.184235,127.566666 240.099823,122.764923 240.023270,118.144714 
	C239.706390,99.022865 239.795395,79.892822 239.884003,60.766476 
	C239.917252,53.589432 242.079941,51.499271 248.120270,52.022789 
	C252.043198,52.362785 254.846191,55.626995 254.964874,60.354557 
	C255.093338,65.472298 254.994003,70.595757 254.994003,76.335991 
	C256.925140,75.698189 258.355469,75.450851 259.561493,74.792595 
	C271.441467,68.308540 294.318146,72.879562 302.121704,86.339310 
	C311.677551,102.821320 312.010681,118.771530 303.063324,135.616913 
	C291.789429,150.571640 277.422180,155.299530 261.350342,149.427673 
M256.789734,124.443077 
	C260.592438,134.259125 272.335968,137.026993 279.145203,135.127670 
	C288.646820,132.477325 293.820831,125.648331 293.911774,115.161659 
	C293.937805,112.162201 294.094940,109.147270 293.862244,106.165146 
	C293.019897,95.370842 285.993866,88.812454 275.510162,88.031143 
	C264.787231,87.232010 256.297760,93.979469 255.353806,104.448883 
	C254.781631,110.794853 256.009338,117.303108 256.789734,124.443077 
z"/>
<path fill="#FBFEFE" opacity="1.000000" stroke="none" 
	d="
M396.786560,119.423233 
	C396.712921,99.318764 396.744781,79.642998 396.866791,59.242912 
	C396.930847,58.338017 396.904724,58.157436 396.878601,57.976856 
	C396.916595,53.822495 399.225006,51.447632 403.141235,51.204437 
	C407.427948,50.938240 411.702179,55.140247 411.901886,59.679726 
	C412.134583,64.969711 411.956177,70.277786 411.956177,76.093491 
	C429.724792,69.281578 445.780518,69.329498 458.497742,85.916916 
	C467.645752,96.876541 467.831451,109.872635 465.303558,122.146149 
	C460.805176,143.986633 444.499878,155.177338 421.785400,150.606644 
	C408.601807,147.953812 397.876770,134.052338 396.786560,119.423233 
M449.619019,100.266045 
	C447.459229,93.503510 441.961700,90.547653 435.861389,88.425026 
	C430.529053,86.569618 419.088837,89.281769 415.244476,95.918358 
	C411.446625,102.474640 411.860199,109.331184 412.048218,116.234299 
	C412.366333,127.913315 419.023315,135.049347 430.462280,135.575195 
	C439.296936,135.981323 449.814728,130.289703 450.638245,118.363228 
	C451.033966,112.632523 450.158173,106.814034 449.619019,100.266045 
z"/>
<path fill="#25C5CC" opacity="1.000000" stroke="none" 
	d="
M372.142242,236.936462 
	C374.777161,243.430069 377.595520,244.932800 383.248199,242.877060 
	C387.354950,241.383530 387.491547,237.687363 387.618347,234.323166 
	C387.874390,227.530029 387.743103,220.722275 387.870453,213.460922 
	C389.243744,214.981445 390.518097,216.961624 391.864258,219.053360 
	C392.935608,218.567047 394.632416,217.796829 396.870422,217.338577 
	C399.003113,227.529510 405.732758,233.345474 413.514435,238.546295 
	C431.681000,250.687790 457.483582,240.658127 463.861115,220.038712 
	C468.056000,206.475922 467.793060,192.766632 460.257477,179.989777 
	C461.692200,179.362000 463.126923,178.734238 464.829956,177.989075 
	C464.829956,181.088699 464.829956,183.522644 464.829956,185.956604 
	C467.154419,180.458832 471.039368,182.287109 475.106934,183.373962 
	C479.739380,198.226593 483.854797,212.871368 488.062683,227.489502 
	C490.562378,236.173447 495.208832,242.764252 505.000641,244.032822 
	C504.025330,248.254578 506.819824,250.342163 509.860840,252.682404 
	C507.958344,252.995987 505.915436,252.996841 503.354370,252.771057 
	C502.225128,252.694778 501.614044,252.845154 501.002960,252.995544 
	C455.648254,252.996445 410.293518,252.997330 364.281433,252.662354 
	C361.284088,251.884140 358.959747,251.220901 356.600342,251.053986 
	C353.473572,250.832779 350.319397,250.999496 347.177032,250.999496 
	C347.099426,250.419556 347.021851,249.839615 346.944244,249.259674 
	C355.343597,245.151932 363.742920,241.044205 372.142242,236.936462 
z"/>
<path fill="#FAFDFD" opacity="1.000000" stroke="none" 
	d="
M386.750244,98.092728 
	C386.798889,98.526199 386.847534,98.959679 386.978027,99.976067 
	C387.160461,101.107765 387.261108,101.656548 387.361755,102.205330 
	C387.486603,103.544823 387.611450,104.884308 387.772125,107.010551 
	C387.902588,108.865639 387.997223,109.933975 388.091858,111.002312 
	C388.047424,113.374069 388.002991,115.745819 388.027130,118.557220 
	C387.939240,127.136497 387.965088,135.285034 387.568237,143.412949 
	C387.254333,149.841843 382.523560,153.189774 377.059723,150.891083 
	C375.101624,150.067291 373.669403,147.993484 371.926605,146.426788 
	C351.738953,157.116867 333.517090,150.611008 322.857147,134.993256 
	C317.476257,129.991669 319.028595,123.377731 318.357819,117.554794 
	C317.719299,112.011574 318.315155,106.254982 318.922974,100.652382 
	C320.950226,81.964836 340.107117,67.674721 360.229462,72.625877 
	C368.644318,74.696358 375.339600,78.530167 379.839691,85.951614 
	C381.085175,88.005646 385.059967,88.018684 384.434906,92.269417 
	C385.428497,94.597466 386.089386,96.345093 386.750244,98.092728 
M333.650513,118.190147 
	C335.520721,129.650208 343.657227,137.026794 354.037598,135.607437 
	C364.411407,134.188995 372.815948,128.050461 372.080383,115.228737 
	C371.956879,113.076088 372.139740,110.905968 372.178589,108.743881 
	C372.369049,98.142067 368.050568,92.052826 357.981293,88.548882 
	C352.463440,86.628777 341.137024,89.122971 337.117645,95.500977 
	C332.741791,102.444572 333.697998,109.847214 333.650513,118.190147 
z"/>
<path fill="#FAFDFD" opacity="1.000000" stroke="none" 
	d="
M473.845428,75.384018 
	C475.198639,71.561508 478.214539,71.506958 481.869263,71.499359 
	C487.901123,72.598457 487.941406,77.451317 489.495850,81.206802 
	C489.664825,81.918915 489.833801,82.631027 490.106110,83.955658 
	C490.437653,84.827477 490.665894,85.086769 490.894104,85.346062 
	C491.071259,86.422745 491.248413,87.499413 491.666046,89.204330 
	C495.284729,102.622993 498.547485,115.446022 502.142670,128.175156 
	C502.826904,130.597794 504.825836,132.649109 506.218201,134.871735 
	C507.451324,132.664948 509.171356,130.595734 509.839935,128.229446 
	C514.831360,110.564026 519.614746,92.839836 524.463318,75.134064 
	C524.885498,74.622414 525.307678,74.110764 526.150391,73.211761 
	C527.450745,72.388474 528.330505,71.952538 529.210266,71.516609 
	C530.387878,71.494133 531.565430,71.471649 533.090515,71.391350 
	C538.787231,74.557442 539.790466,76.835052 538.119568,82.859421 
	C531.075134,108.258339 523.975525,133.641953 516.650940,159.715393 
	C514.926636,166.501236 513.418457,172.596024 511.978027,178.706787 
	C510.955536,183.044586 509.055237,186.568680 504.062897,186.978104 
	C499.016815,187.391937 496.623352,184.181763 495.090942,179.976074 
	C497.671814,170.539352 500.252686,161.102615 502.911377,151.381348 
	C493.803711,149.119827 490.189484,142.181427 487.969788,133.917068 
	C483.323059,116.616447 478.470673,99.370934 473.861053,82.060638 
	C473.339783,80.103065 473.833435,77.875221 473.845428,75.384018 
z"/>
<path fill="#FBFDFD" opacity="1.000000" stroke="none" 
	d="
M460.028503,179.730011 
	C467.793060,192.766632 468.056000,206.475922 463.861115,220.038712 
	C457.483582,240.658127 431.681000,250.687790 413.514435,238.546295 
	C405.732758,233.345474 399.003113,227.529510 397.237183,217.325455 
	C396.992706,210.361588 397.126831,203.713272 396.816040,197.085800 
	C395.691498,173.109024 424.820312,157.541428 445.147888,167.419510 
	C451.026917,170.276398 456.429321,173.611328 460.028503,179.730011 
M450.776794,197.161499 
	C449.692261,190.237274 445.665283,185.529938 439.832794,181.914185 
	C433.009766,177.684341 420.335236,180.068939 415.994141,187.600296 
	C410.647400,196.876343 410.028168,211.331711 416.122070,220.211945 
	C417.661560,222.455383 419.670898,224.748672 422.008728,226.010025 
	C434.678436,232.845825 450.128662,223.675705 450.837036,209.038834 
	C451.014008,205.382339 450.837219,201.708694 450.776794,197.161499 
z"/>
<path fill="#FAFDFD" opacity="1.000000" stroke="none" 
	d="
M505.398315,243.953156 
	C495.208832,242.764252 490.562378,236.173447 488.062683,227.489502 
	C483.854797,212.871368 479.739380,198.226593 475.394714,183.272278 
	C474.693481,180.065506 474.207611,177.174774 473.665985,174.294525 
	C472.808990,169.737259 474.768951,165.691132 478.359924,164.685577 
	C482.271179,163.590347 486.109253,165.589478 487.932312,169.750977 
	C488.592407,171.257797 489.087952,172.836700 489.835175,175.038254 
	C490.281586,176.033722 490.551392,176.373642 490.821198,176.713562 
	C490.821198,176.713562 490.437256,176.718338 490.508728,177.315338 
	C494.681000,193.148224 498.727936,208.399078 502.958374,223.598877 
	C503.426971,225.282532 504.942871,226.674698 505.973022,228.202057 
	C507.025299,226.724426 508.589630,225.390350 509.050415,223.746872 
	C513.486084,207.926041 517.558716,192.001358 522.162659,176.231155 
	C523.323120,172.256088 526.013000,168.727524 528.000122,164.993774 
	C530.085144,165.001541 532.170105,165.009308 534.605225,165.084824 
	C538.713623,168.309540 539.280212,171.979294 537.899048,176.729263 
	C533.880188,190.550049 530.306091,204.500244 526.562561,218.401047 
	C525.681458,221.672897 524.819763,224.949966 523.942017,228.613800 
	C520.344727,236.955750 515.657227,243.569992 505.398315,243.953156 
z"/>
<path fill="#21C3CA" opacity="1.000000" stroke="none" 
	d="
M372.194519,236.474472 
	C363.742920,241.044205 355.343597,245.151932 346.944244,249.259674 
	C347.021851,249.839615 347.099426,250.419556 347.177032,250.999496 
	C350.319397,250.999496 353.473572,250.832779 356.600342,251.053986 
	C358.959747,251.220901 361.284088,251.884140 363.812866,252.662369 
	C346.646912,252.998856 329.292114,252.999420 311.122925,252.797791 
	C306.872375,252.730377 303.436188,252.865189 300.000000,253.000000 
	C299.250000,253.000000 298.500000,253.000000 297.022736,252.795776 
	C292.196991,252.727707 288.098480,252.863846 284.000000,253.000000 
	C282.933319,253.000000 281.866669,253.000000 280.129852,252.810608 
	C278.406769,251.993881 277.353821,251.366531 276.081848,250.608704 
	C278.782898,247.654282 282.157898,245.470123 283.210358,242.470978 
	C284.946136,237.524475 288.024567,236.706573 292.386871,236.972809 
	C294.873810,237.124603 297.377655,236.999863 299.873871,236.999634 
	C301.912140,243.600677 303.187012,244.154846 313.574524,243.003799 
	C314.508972,243.151672 315.332214,243.021851 315.328674,242.921219 
	C315.282288,241.606476 315.118896,240.295868 314.984924,238.984207 
	C314.984924,238.984207 315.000000,239.000000 315.216095,238.925385 
	C315.391632,238.232162 315.351044,237.613571 315.310486,236.994965 
	C315.333466,235.277222 315.356476,233.559494 315.836975,231.408981 
	C317.815430,229.521332 319.915314,228.336212 320.743683,226.558548 
	C322.831421,222.078278 324.664825,221.013962 329.071716,223.103271 
	C331.417389,224.215347 333.591675,225.688858 335.843353,226.999207 
	C335.915314,230.352768 335.987305,233.706329 335.890503,237.757004 
	C336.205231,239.304398 336.688751,240.154694 337.172272,241.004974 
	C339.779877,241.972458 342.387482,242.939926 345.812195,243.930328 
	C352.623230,243.725616 352.957428,243.307617 351.832550,237.445190 
	C351.838196,222.165817 351.834045,206.886414 351.853760,191.607056 
	C351.863007,184.443787 355.830750,179.688660 361.691895,179.749023 
	C368.007324,179.814041 372.207428,184.392227 372.248810,191.669312 
	C372.332855,206.449890 372.256836,221.231369 372.194519,236.474472 
M330.705597,241.083618 
	C330.896698,241.050079 331.087799,241.016525 331.278900,240.982986 
	C331.090851,240.937103 330.902802,240.891220 330.705597,241.083618 
z"/>
<path fill="#20C3CA" opacity="1.000000" stroke="none" 
	d="
M299.934265,236.534790 
	C297.377655,236.999863 294.873810,237.124603 292.386871,236.972809 
	C288.024567,236.706573 284.946136,237.524475 283.210358,242.470978 
	C282.157898,245.470123 278.782898,247.654282 276.081848,250.608704 
	C277.353821,251.366531 278.406769,251.993881 279.729858,252.810608 
	C277.905029,253.326538 275.803619,253.968948 273.716217,253.926208 
	C263.441620,253.715820 253.171112,253.311005 242.898285,253.004135 
	C240.167221,252.922546 237.272003,253.055161 237.097672,249.239517 
	C236.944550,245.888062 237.044647,242.907349 240.901550,240.929688 
	C247.389771,237.602814 253.831116,234.956238 261.221283,233.879288 
	C266.173950,233.157547 270.734863,229.747452 276.016479,227.286102 
	C276.987457,229.737015 277.844330,231.899948 278.436798,233.395416 
	C281.677673,230.523163 284.838959,227.767441 287.926514,224.931503 
	C288.349426,224.543091 288.517365,223.772751 288.614166,223.149841 
	C289.552734,217.108749 290.014038,216.772125 296.065186,217.735855 
	C297.045013,217.891876 298.046722,217.910324 299.442993,217.995560 
	C299.896637,224.022476 299.945648,230.046204 299.934265,236.534790 
z"/>
<path fill="#27C6CC" opacity="1.000000" stroke="none" 
	d="
M527.969604,164.647049 
	C526.013000,168.727524 523.323120,172.256088 522.162659,176.231155 
	C517.558716,192.001358 513.486084,207.926041 509.050415,223.746872 
	C508.589630,225.390350 507.025299,226.724426 505.973022,228.202057 
	C504.942871,226.674698 503.426971,225.282532 502.958374,223.598877 
	C498.727936,208.399078 494.681000,193.148224 490.508850,177.507324 
	C491.773041,177.977905 493.108673,178.853485 494.767639,179.852570 
	C496.623352,184.181763 499.016815,187.391937 504.062897,186.978104 
	C509.055237,186.568680 510.955536,183.044586 511.978027,178.706787 
	C513.418457,172.596024 514.926636,166.501236 516.645020,160.099762 
	C517.256470,161.556656 518.022705,163.337524 517.916748,165.064926 
	C517.714294,168.366730 516.462158,171.762268 519.984375,174.527222 
	C520.250305,171.161438 520.088806,168.081467 520.881836,165.270752 
	C521.295227,163.805527 523.238342,162.453308 524.803833,161.795425 
	C525.393799,161.547485 526.867981,163.403473 527.969604,164.647049 
z"/>
<path fill="#1CBEC4" opacity="1.000000" stroke="none" 
	d="
M87.077789,11.511252 
	C87.145126,17.651093 85.858742,23.769663 86.601524,29.631096 
	C87.197983,34.337952 91.906296,35.951759 96.662666,35.934937 
	C105.960793,35.902054 115.259293,35.899105 124.557343,35.945431 
	C133.182053,35.988400 139.784836,40.362549 142.421173,47.673965 
	C145.079544,55.046494 142.691025,62.182556 135.337997,67.934601 
	C134.999908,61.084049 134.946838,54.148552 135.004990,47.213985 
	C135.029495,44.291843 133.757736,42.975971 130.828094,42.985023 
	C118.431076,43.023327 106.033875,43.008938 93.636757,42.995800 
	C90.149506,42.992107 86.116547,43.713150 87.492767,37.721390 
	C87.628998,37.128323 85.113815,35.127930 83.860100,35.156067 
	C79.145531,35.261852 77.702957,33.029106 77.962891,28.713289 
	C78.162117,25.405457 77.996696,22.075920 78.001060,18.756046 
	C78.011658,10.696764 78.310616,10.441852 87.077789,11.511252 
z"/>
<path fill="#1EBFC3" opacity="1.000000" stroke="none" 
	d="
M166.756775,74.345497 
	C178.123337,49.572830 167.542465,24.574402 147.144287,13.419350 
	C149.514267,12.446012 152.055038,11.455839 154.683609,11.080606 
	C158.869446,10.483072 157.875183,15.115465 159.394058,16.271181 
	C163.366272,19.293644 167.426910,21.874762 169.268097,26.787249 
	C176.333618,26.510323 174.787170,31.249496 174.732986,35.610710 
	C174.605087,45.901283 174.949738,56.196728 174.980957,66.490570 
	C175.010941,76.375397 175.151855,74.711143 166.756775,74.345497 
z"/>
<path fill="#1CBEC4" opacity="1.000000" stroke="none" 
	d="
M142.909363,10.729967 
	C126.976807,5.852558 110.545151,8.565491 94.327026,8.201815 
	C92.300804,8.156378 90.230675,10.068770 87.913483,11.290571 
	C86.181236,3.663150 86.691330,3.006419 94.365654,3.001811 
	C108.194023,2.993508 122.022408,2.992337 135.850769,3.002809 
	C143.014175,3.008234 143.014160,3.022387 142.909363,10.729967 
z"/>
<path fill="#1CBEC4" opacity="1.000000" stroke="none" 
	d="
M132.770035,68.716499 
	C127.054100,69.664108 121.121399,70.643730 115.158821,70.884964 
	C110.481285,71.074196 106.830544,72.364273 104.289566,76.835167 
	C103.732040,74.810387 103.097610,72.526138 103.256653,70.298538 
	C103.329971,69.271576 104.925346,67.559593 105.882065,67.523514 
	C110.618774,67.344894 115.372261,67.680977 120.120705,67.714668 
	C122.575607,67.732094 125.038460,67.338440 127.486084,67.432693 
	C129.181137,67.497971 130.856323,68.079422 132.770035,68.716499 
z"/>
<path fill="#1EBFC3" opacity="1.000000" stroke="none" 
	d="
M165.700745,83.004623 
	C164.258682,82.796906 163.104141,82.247528 161.725876,81.591690 
	C163.235748,79.187332 164.544327,77.103539 166.056381,74.772339 
	C166.169327,77.237617 166.078796,79.950294 165.700745,83.004623 
z"/>
<path fill="#20C3CA" opacity="1.000000" stroke="none" 
	d="
M284.352295,253.204178 
	C288.098480,252.863846 292.196991,252.727707 296.647736,252.795776 
	C292.901520,253.136124 288.803040,253.272247 284.352295,253.204178 
z"/>
<path fill="#20C3CA" opacity="1.000000" stroke="none" 
	d="
M300.345703,253.202240 
	C303.436188,252.865189 306.872375,252.730377 310.654297,252.797791 
	C307.563812,253.134827 304.127625,253.269638 300.345703,253.202240 
z"/>
<path fill="#27C8CE" opacity="1.000000" stroke="none" 
	d="
M501.335327,252.996094 
	C501.614044,252.845154 502.225128,252.694778 502.916626,252.769989 
	C502.553894,252.995941 502.110779,252.996307 501.335327,252.996094 
z"/>
<path fill="#1EBFC3" opacity="1.000000" stroke="none" 
	d="
M144.728439,11.971372 
	C144.364838,11.991911 143.779007,11.803217 143.002060,11.367433 
	C143.376038,11.334275 143.941116,11.548207 144.728439,11.971372 
z"/>
<path fill="#27C6CC" opacity="1.000000" stroke="none" 
	d="
M490.714691,176.416962 
	C490.551392,176.373642 490.281586,176.033722 490.021881,175.348236 
	C490.224060,175.375244 490.416107,175.747787 490.714691,176.416962 
z"/>
<path fill="#FAFDFD" opacity="1.000000" stroke="none" 
	d="
M603.993713,221.008835 
	C604.043823,221.351303 604.210815,221.621521 604.715454,221.923157 
	C606.999756,226.815628 605.612671,230.252258 601.672729,233.742752 
	C585.925171,247.694138 570.993408,245.648102 555.995056,236.748962 
	C552.720215,234.805862 550.443970,231.179840 547.434509,228.141785 
	C543.117676,221.802887 541.452209,214.955475 540.964905,207.686890 
	C540.400574,199.267731 541.787842,191.402939 545.351807,183.622482 
	C552.385986,168.266205 573.456848,162.032898 586.400391,165.376587 
	C596.504761,167.986816 603.369385,173.943665 608.827820,183.021729 
	C609.403381,184.040527 609.720337,184.517731 610.037354,184.994934 
	C610.686584,190.916092 611.335815,196.837250 611.614746,203.390503 
	C609.726074,204.985062 608.316101,206.488586 606.670959,206.818146 
	C598.698364,208.415253 590.677490,209.789780 582.645264,211.064468 
	C574.877563,212.297165 567.075195,213.312042 559.074036,214.453110 
	C564.875549,228.952744 581.571533,232.917770 591.235352,222.930954 
	C596.187866,217.812927 598.060364,217.530823 603.993713,221.008835 
M569.767700,197.191284 
	C578.131348,195.648071 586.494995,194.104874 595.008667,192.533981 
	C590.419250,182.043137 581.715820,177.557098 572.533081,180.425781 
	C564.251343,183.013000 556.490112,192.607727 557.776306,199.230942 
	C561.480713,198.612442 565.203003,197.990967 569.767700,197.191284 
z"/>
<path fill="#29C8CE" opacity="1.000000" stroke="none" 
	d="
M604.078247,220.630173 
	C598.060364,217.530823 596.187866,217.812927 591.235352,222.930954 
	C581.571533,232.917770 564.875549,228.952744 559.074036,214.453110 
	C567.075195,213.312042 574.877563,212.297165 582.645264,211.064468 
	C590.677490,209.789780 598.698364,208.415253 606.670959,206.818146 
	C608.316101,206.488586 609.726074,204.985062 611.550781,203.829803 
	C612.142212,204.540955 612.427246,205.444931 612.856079,206.674759 
	C613.208069,210.758636 611.801941,212.927078 607.928650,214.282242 
	C606.190002,214.890533 605.389099,218.179138 604.078247,220.630173 
z"/>
<path fill="#29C8CE" opacity="1.000000" stroke="none" 
	d="
M610.187744,184.809723 
	C609.720337,184.517731 609.403381,184.040527 609.072266,183.275269 
	C609.484802,183.532990 609.911438,184.078766 610.187744,184.809723 
z"/>
<path fill="#1FC2C9" opacity="1.000000" stroke="none" 
	d="
M541.505127,164.493988 
	C541.511902,164.513077 541.498413,164.474884 541.505127,164.493988 
z"/>
<path fill="#1CC0C7" opacity="1.000000" stroke="none" 
	d="
M134.916748,206.142395 
	C133.674515,205.752319 132.714783,205.241806 131.804642,204.757675 
	C133.467117,202.454987 134.934418,200.422623 136.401733,198.390274 
	C136.128464,197.777649 135.855194,197.165039 135.581924,196.552414 
	C130.459747,197.671860 125.342461,198.814453 120.212852,199.898788 
	C118.283089,200.306717 116.307510,200.939972 114.382599,200.847900 
	C107.995514,200.542389 98.450020,205.522339 95.819000,211.263809 
	C94.350159,214.469116 92.038719,215.364441 89.016640,214.961594 
	C81.196198,213.919144 76.875351,218.146622 73.719788,224.541901 
	C73.256599,225.480606 71.509224,226.710800 70.821968,226.470963 
	C63.844742,224.036087 59.845745,229.000183 55.094994,232.751419 
	C53.372440,231.614365 51.771187,230.160614 50.232399,228.141846 
	C51.048653,226.608292 51.802441,225.639725 52.535095,224.698318 
	C50.791759,224.044998 49.395878,223.521896 47.989357,222.644318 
	C47.322533,221.192535 46.666348,220.095230 45.818314,218.738159 
	C44.700867,217.986588 43.775269,217.494751 42.849670,217.002914 
	C41.900162,215.271530 40.950661,213.540161 39.951889,211.126297 
	C39.476143,209.658966 39.049667,208.874115 38.623192,208.089264 
	C37.888065,205.400787 37.152939,202.712326 36.549934,199.648132 
	C36.682056,199.272400 36.570663,199.220428 36.570663,199.220428 
	C36.570663,199.220428 36.142658,199.078201 35.927742,198.597260 
	C35.534035,197.753387 35.355244,197.390457 35.176453,197.027512 
	C35.080910,196.586487 34.985363,196.145477 35.221802,195.216812 
	C37.334404,191.894547 39.663418,190.484467 43.065987,189.325195 
	C46.846981,188.037018 52.851574,188.369980 53.576550,181.978531 
	C53.605228,181.725662 56.480354,181.143723 57.272640,181.732727 
	C63.520714,186.377899 63.458664,186.452377 65.775429,179.395935 
	C65.861916,179.132507 66.256760,178.970322 66.507912,178.760941 
	C68.924515,178.739975 70.777145,177.714935 72.707954,176.868210 
	C73.732208,176.419052 74.892197,176.279388 75.990913,176.000031 
	C76.064178,176.733078 76.137444,177.466125 75.975571,178.826889 
	C76.156357,180.636490 76.572273,181.818375 76.990921,183.375031 
	C76.994911,184.499298 76.996185,185.248825 76.952400,186.024979 
	C76.907341,186.051620 77.001770,186.002502 77.445404,185.999115 
	C79.072556,185.949707 80.256065,185.903702 81.439583,185.857681 
	C86.064484,186.136429 90.700386,186.725571 95.309601,186.562103 
	C97.592056,186.481171 99.825378,185.014725 102.722809,184.153351 
	C104.461212,184.885681 105.557732,185.639816 106.654259,186.393936 
	C107.082008,185.953415 107.509758,185.512894 107.937515,185.072357 
	C106.892471,184.044678 105.847427,183.016998 104.802383,181.989319 
	C104.844780,181.233383 104.887184,180.477448 105.361633,179.361633 
	C106.196098,179.001175 106.598503,179.000580 107.116089,179.077850 
	C107.231270,179.155701 107.632210,179.191269 107.632210,179.191269 
	C107.632210,179.191269 107.994804,179.000870 107.997375,179.000427 
	C107.999954,179.000000 108.000916,178.995117 108.255577,178.902832 
	C108.857262,178.322861 109.204292,177.835159 109.551315,177.347458 
	C109.034210,177.231644 108.517105,177.115814 107.657707,176.999969 
	C106.634132,176.998306 105.952843,176.996674 105.271561,176.995056 
	C105.352333,175.076218 105.433098,173.157364 106.143005,171.020294 
	C107.439384,170.664337 108.106621,170.526627 108.773857,170.388916 
	C108.699486,170.134262 108.625122,169.879623 108.550751,169.624969 
	C107.732498,170.000916 106.914246,170.376846 106.095993,170.752792 
	C106.033958,170.183273 105.971924,169.613739 106.336250,168.456207 
	C107.431442,166.650894 111.023666,166.261566 107.869072,163.961411 
	C109.990013,161.263992 112.110947,158.566559 114.567719,156.136597 
	C113.830299,158.865021 112.757042,161.326004 111.456261,164.308716 
	C113.261864,165.043488 115.104752,165.793442 117.400352,166.727615 
	C117.687500,162.350082 119.793182,161.146484 123.458435,160.657043 
	C128.021362,160.047760 132.106415,157.835480 133.999802,153.061935 
	C134.547745,153.209381 135.095688,153.356812 135.826935,154.122162 
	C136.185059,156.251678 136.359894,157.763275 136.596161,159.806000 
	C138.824509,159.066956 140.335144,158.565948 141.845779,158.064941 
	C143.340225,160.072693 144.834686,162.080429 146.231491,164.627975 
	C146.513107,165.777466 146.892380,166.387146 147.271637,166.996841 
	C147.271637,166.996841 147.602722,167.304367 147.446289,167.636383 
	C147.109787,168.205521 146.929703,168.442657 146.749619,168.679779 
	C147.118408,168.793640 147.487198,168.907501 147.855988,169.021362 
	C147.942627,173.747116 148.029266,178.472870 147.652954,183.653625 
	C144.672363,185.855774 142.957703,187.693954 146.507172,190.129181 
	C144.585159,193.659943 142.663147,197.190720 140.268005,200.914215 
	C139.604477,201.436584 139.414078,201.766205 139.223694,202.095840 
	C137.882217,203.404541 136.540741,204.713257 134.916748,206.142395 
M139.195908,193.899277 
	C138.966003,194.198441 138.729095,194.493027 138.522598,194.807556 
	C138.509445,194.827591 138.732300,195.002563 138.845352,195.105453 
	C139.054062,194.788803 139.262756,194.472153 139.195908,193.899277 
M42.846611,205.262497 
	C42.960587,205.104736 43.074562,204.946991 43.188541,204.789230 
	C43.021862,204.888733 42.855183,204.988235 42.846611,205.262497 
M72.956055,182.596848 
	C72.916153,182.761169 72.876259,182.925507 72.836357,183.089828 
	C72.919662,182.977173 73.002960,182.864517 72.956055,182.596848 
z"/>
<path fill="#1CBFC5" opacity="1.000000" stroke="none" 
	d="
M76.077354,175.565704 
	C74.892197,176.279388 73.732208,176.419052 72.707954,176.868210 
	C70.777145,177.714935 68.924515,178.739975 66.507912,178.760941 
	C66.256760,178.970322 65.861916,179.132507 65.775429,179.395935 
	C63.458664,186.452377 63.520714,186.377899 57.272640,181.732727 
	C56.480354,181.143723 53.605228,181.725662 53.576550,181.978531 
	C52.851574,188.369980 46.846981,188.037018 43.065987,189.325195 
	C39.663418,190.484467 37.334404,191.894547 35.234726,194.876938 
	C34.662449,194.230469 34.409241,193.436249 34.478172,192.173340 
	C37.000633,188.901810 38.015469,186.349838 33.380100,184.993591 
	C33.349564,180.036163 32.665611,174.977142 33.417355,170.141327 
	C35.285576,158.123398 45.467953,150.570816 57.212551,151.807129 
	C68.660881,153.012253 76.198006,162.288574 76.077354,175.565704 
z"/>
<path fill="#20C2C9" opacity="1.000000" stroke="none" 
	d="
M118.328583,124.190750 
	C114.010101,123.509209 109.936661,122.847702 105.728050,122.164238 
	C111.994591,115.158577 119.646126,113.913635 128.071548,114.571396 
	C129.289261,114.666458 131.619110,112.773972 131.798706,111.559395 
	C132.293915,108.210373 133.831680,107.009476 137.043793,106.973312 
	C140.277756,106.936920 142.272141,107.791649 143.131332,111.357437 
	C143.482117,112.813232 145.661606,114.375839 147.304703,114.837158 
	C149.461884,115.442810 151.911041,115.008087 154.234634,115.021568 
	C156.840485,115.036682 159.390244,115.874847 158.676498,118.833206 
	C158.283310,120.462898 155.910156,122.532524 154.215698,122.752029 
	C149.805771,123.323273 145.275681,122.914162 140.797852,123.044327 
	C139.350510,123.086395 137.916534,123.588821 136.133362,124.149994 
	C135.081787,124.299507 134.373322,124.179695 133.102234,123.816620 
	C131.715622,123.606018 130.891602,123.638680 130.067596,123.671333 
	C127.008270,123.782524 123.948952,123.893715 120.315010,123.882660 
	C119.460526,123.694550 119.214737,123.764832 119.003036,123.971245 
	C119.003036,123.971245 118.573616,124.210785 118.328583,124.190750 
z"/>
<path fill="#1EC0C5" opacity="1.000000" stroke="none" 
	d="
M133.625916,152.875916 
	C132.106415,157.835480 128.021362,160.047760 123.458435,160.657043 
	C119.793182,161.146484 117.687500,162.350082 117.400352,166.727615 
	C115.104752,165.793442 113.261864,165.043488 111.456261,164.308716 
	C112.757042,161.326004 113.830299,158.865021 114.893799,156.009613 
	C120.466118,151.245697 126.678635,150.834869 133.625916,152.875916 
z"/>
<path fill="#1EC0C5" opacity="1.000000" stroke="none" 
	d="
M141.702637,157.770233 
	C140.335144,158.565948 138.824509,159.066956 136.596161,159.806000 
	C136.359894,157.763275 136.185059,156.251678 136.012695,154.348557 
	C137.863281,155.129868 139.711380,156.302689 141.702637,157.770233 
z"/>
<path fill="#1EC1C7" opacity="1.000000" stroke="none" 
	d="
M33.313175,185.380676 
	C38.015469,186.349838 37.000633,188.901810 34.518204,191.851654 
	C33.906143,189.921692 33.576195,187.844727 33.313175,185.380676 
z"/>
<path fill="#1EC1C7" opacity="1.000000" stroke="none" 
	d="
M146.681656,189.828461 
	C142.957703,187.693954 144.672363,185.855774 147.530960,184.053467 
	C147.533325,185.841431 147.194733,187.684586 146.681656,189.828461 
z"/>
<path fill="#1EBFC3" opacity="1.000000" stroke="none" 
	d="
M48.000000,222.998779 
	C49.395878,223.521896 50.791759,224.044998 52.535095,224.698318 
	C51.802441,225.639725 51.048653,226.608292 50.124428,227.829285 
	C48.794876,226.584152 47.635765,225.086594 46.660889,223.292023 
	C47.230076,222.996277 47.615040,222.997528 48.000000,222.998779 
z"/>
<path fill="#1EC0C5" opacity="1.000000" stroke="none" 
	d="
M104.517609,182.061356 
	C105.847427,183.016998 106.892471,184.044678 107.937515,185.072357 
	C107.509758,185.512894 107.082008,185.953415 106.654259,186.393936 
	C105.557732,185.639816 104.461212,184.885681 103.057312,184.015564 
	C103.244232,183.310837 103.738533,182.722122 104.517609,182.061356 
z"/>
<path fill="#1EC1C7" opacity="1.000000" stroke="none" 
	d="
M81.235794,185.588272 
	C80.256065,185.903702 79.072556,185.949707 77.444519,185.997864 
	C77.000000,186.000000 76.997459,185.998337 76.997459,185.998337 
	C76.996185,185.248825 76.994911,184.499298 77.032158,183.038849 
	C77.099075,182.103882 77.127472,181.879852 77.155861,181.655838 
	C78.447914,182.876846 79.739960,184.097855 81.235794,185.588272 
z"/>
<path fill="#1EBFC3" opacity="1.000000" stroke="none" 
	d="
M42.904484,217.345154 
	C43.775269,217.494751 44.700867,217.986588 45.808662,219.148315 
	C45.954483,220.637680 45.918110,221.457153 45.881737,222.276642 
	C44.907593,220.746902 43.933445,219.217148 42.904484,217.345154 
z"/>
<path fill="#1EC0C5" opacity="1.000000" stroke="none" 
	d="
M107.644379,164.156799 
	C111.023666,166.261566 107.431442,166.650894 106.453789,168.035645 
	C106.569878,166.919464 106.994781,165.635818 107.644379,164.156799 
z"/>
<path fill="#1EC1C7" opacity="1.000000" stroke="none" 
	d="
M45.924381,222.484985 
	C45.918110,221.457153 45.954483,220.637680 46.000507,219.408051 
	C46.666348,220.095230 47.322533,221.192535 47.989357,222.644318 
	C47.615040,222.997528 47.230076,222.996277 46.556389,222.994629 
	C46.267658,222.994217 45.967026,222.693344 45.924381,222.484985 
z"/>
<path fill="#1CBFC5" opacity="1.000000" stroke="none" 
	d="
M77.134850,181.357315 
	C77.127472,181.879852 77.099075,182.103882 77.029434,182.664078 
	C76.572273,181.818375 76.156357,180.636490 75.938103,179.195526 
	C76.461792,179.643890 76.787811,180.351349 77.134850,181.357315 
z"/>
<path fill="#1EC1C7" opacity="1.000000" stroke="none" 
	d="
M105.191147,177.324387 
	C105.952843,176.996674 106.634132,176.998306 107.657768,177.332520 
	C108.000389,178.108444 108.000648,178.551773 108.000916,178.995117 
	C108.000916,178.995117 107.999954,179.000000 107.748940,179.000153 
	C107.497925,179.000305 107.000916,179.000000 107.000916,179.000000 
	C106.598503,179.000580 106.196098,179.001175 105.492233,179.002457 
	C105.164093,178.553345 105.137413,178.103531 105.191147,177.324387 
z"/>
<path fill="#1EC0C5" opacity="1.000000" stroke="none" 
	d="
M106.124161,170.758530 
	C106.914246,170.376846 107.732498,170.000916 108.550751,169.624969 
	C108.625122,169.879623 108.699486,170.134262 108.773857,170.388916 
	C108.106621,170.526627 107.439384,170.664337 106.438408,170.803085 
	C106.104668,170.804123 106.152328,170.764267 106.124161,170.758530 
z"/>
<path fill="#1EBFC3" opacity="1.000000" stroke="none" 
	d="
M147.252930,166.696930 
	C146.892380,166.387146 146.513107,165.777466 146.319977,164.971680 
	C146.748810,165.316055 146.991516,165.856522 147.252930,166.696930 
z"/>
<path fill="#1EBFC3" opacity="1.000000" stroke="none" 
	d="
M38.685318,208.424988 
	C39.049667,208.874115 39.476143,209.658966 39.923203,210.791260 
	C39.545010,210.346024 39.146229,209.553360 38.685318,208.424988 
z"/>
<path fill="#1EBFC3" opacity="1.000000" stroke="none" 
	d="
M147.899658,168.802521 
	C147.487198,168.907501 147.118408,168.793640 146.749619,168.679779 
	C146.929703,168.442657 147.109787,168.205521 147.475006,167.860489 
	C147.856277,167.994934 147.950668,168.271973 147.899658,168.802521 
z"/>
<path fill="#1EC1C7" opacity="1.000000" stroke="none" 
	d="
M130.421570,123.769798 
	C130.891602,123.638680 131.715622,123.606018 132.754776,123.724304 
	C132.238464,123.872917 131.506989,123.870590 130.421570,123.769798 
z"/>
<path fill="#1EC1C7" opacity="1.000000" stroke="none" 
	d="
M139.450775,201.999405 
	C139.414078,201.766205 139.604477,201.436584 139.977509,201.084122 
	C140.103790,201.401672 139.943008,201.682220 139.450775,201.999405 
z"/>
<path fill="#1EBFC3" opacity="1.000000" stroke="none" 
	d="
M36.603149,199.272156 
	C36.570663,199.220428 36.682056,199.272400 36.707909,199.261749 
	C36.733761,199.251099 36.635639,199.323898 36.603149,199.272156 
z"/>
<path fill="#1EC1C7" opacity="1.000000" stroke="none" 
	d="
M119.251160,123.992523 
	C119.214737,123.764832 119.460526,123.694550 119.860519,123.823143 
	C119.980637,123.885880 119.499283,124.013794 119.251160,123.992523 
z"/>
<path fill="#1EBFC3" opacity="1.000000" stroke="none" 
	d="
M35.165993,197.356079 
	C35.355244,197.390457 35.534035,197.753387 35.804482,198.408432 
	C35.649273,198.361908 35.402405,198.023285 35.165993,197.356079 
z"/>
<path fill="#1FC2C9" opacity="1.000000" stroke="none" 
	d="
M524.363770,74.821930 
	C519.614746,92.839836 514.831360,110.564026 509.839935,128.229446 
	C509.171356,130.595734 507.451324,132.664948 506.218201,134.871735 
	C504.825836,132.649109 502.826904,130.597794 502.142670,128.175156 
	C498.547485,115.446022 495.284729,102.622993 491.896973,89.440552 
	C494.361908,87.504913 496.744965,84.106758 499.561310,88.774887 
	C499.692749,88.992729 502.620941,88.293785 502.926514,87.508263 
	C504.632507,83.123192 507.659576,82.420792 511.714661,83.600204 
	C515.879944,84.811684 517.997314,83.183281 518.194458,78.699081 
	C518.361023,74.910164 520.974548,73.106316 524.363770,74.821930 
z"/>
<path fill="#1FC2C9" opacity="1.000000" stroke="none" 
	d="
M489.745514,80.957451 
	C487.941406,77.451317 487.901123,72.598457 482.246094,71.422905 
	C483.685364,70.863266 485.404358,70.240471 487.147247,70.164284 
	C489.755249,70.050278 491.109100,71.241707 490.560791,74.165901 
	C490.159393,76.306725 490.168854,78.524582 489.745514,80.957451 
z"/>
<path fill="#1FC2C9" opacity="1.000000" stroke="none" 
	d="
M388.401154,111.048790 
	C387.997223,109.933975 387.902588,108.865639 387.881226,107.400330 
	C389.249939,107.406677 390.545441,107.809990 391.840912,108.213303 
	C390.797424,109.173965 389.753937,110.134621 388.401154,111.048790 
z"/>
<path fill="#1FC2C9" opacity="1.000000" stroke="none" 
	d="
M387.014465,97.921028 
	C386.089386,96.345093 385.428497,94.597466 384.691193,92.499702 
	C387.130066,93.241997 389.311340,94.493347 387.014465,97.921028 
z"/>
<path fill="#1FC2C9" opacity="1.000000" stroke="none" 
	d="
M511.728455,61.996719 
	C511.853424,61.377445 512.133545,60.927006 512.413696,60.476574 
	C512.698914,60.774094 512.984070,61.071609 513.269287,61.369125 
	C512.807373,61.634605 512.345520,61.900082 511.728455,61.996719 
z"/>
<path fill="#1FC2C9" opacity="1.000000" stroke="none" 
	d="
M498.211914,78.800079 
	C498.128723,79.401199 497.881805,79.834007 497.634888,80.266815 
	C497.335693,79.960678 497.036499,79.654533 496.737335,79.348373 
	C497.174286,79.109505 497.611267,78.870636 498.211914,78.800079 
z"/>
<path fill="#1FC2C9" opacity="1.000000" stroke="none" 
	d="
M528.983154,71.286377 
	C528.330505,71.952538 527.450745,72.388474 526.286255,72.908661 
	C526.919739,72.347321 527.837830,71.701729 528.983154,71.286377 
z"/>
<path fill="#1FC2C9" opacity="1.000000" stroke="none" 
	d="
M390.480042,114.315521 
	C390.872467,114.238106 391.216736,114.337410 391.550201,114.465118 
	C391.563293,114.470131 391.472626,114.746140 391.430298,114.895874 
	C391.096893,114.762985 390.763458,114.630096 390.480042,114.315521 
z"/>
<path fill="#1FC2C9" opacity="1.000000" stroke="none" 
	d="
M387.564636,102.047081 
	C387.261108,101.656548 387.160461,101.107765 387.102905,100.280006 
	C387.353119,100.630295 387.560333,101.259567 387.564636,102.047081 
z"/>
<path fill="#55CFD6" opacity="1.000000" stroke="none" 
	d="
M396.777710,58.087196 
	C396.904724,58.157436 396.930847,58.338017 396.865479,58.776478 
	C396.580261,58.778141 396.547852,58.499195 396.777710,58.087196 
z"/>
<path fill="#1FC2C9" opacity="1.000000" stroke="none" 
	d="
M490.815155,85.113617 
	C490.665894,85.086769 490.437653,84.827477 490.226196,84.301788 
	C490.443176,84.296448 490.607574,84.578384 490.815155,85.113617 
z"/>
<path fill="#20C3CA" opacity="1.000000" stroke="none" 
	d="
M335.911865,226.535004 
	C333.591675,225.688858 331.417389,224.215347 329.071716,223.103271 
	C324.664825,221.013962 322.831421,222.078278 320.743683,226.558548 
	C319.915314,228.336212 317.815430,229.521332 315.951141,230.995209 
	C315.537750,217.587799 315.467651,204.161362 315.592346,190.088028 
	C315.857910,189.190170 315.897552,188.934402 315.906158,188.673813 
	C317.391602,182.094711 320.721741,179.281540 326.410187,179.800369 
	C332.039551,180.313797 335.947449,184.567047 335.986328,190.585266 
	C336.062714,202.413269 335.990906,214.242233 335.911865,226.535004 
z"/>
<path fill="#25C5CC" opacity="1.000000" stroke="none" 
	d="
M351.564148,237.711853 
	C352.957428,243.307617 352.623230,243.725616 346.211182,243.937012 
	C347.627289,241.940018 349.461517,239.959259 351.564148,237.711853 
z"/>
<path fill="#25C5CC" opacity="1.000000" stroke="none" 
	d="
M314.727417,239.217194 
	C315.118896,240.295868 315.282288,241.606476 315.328674,242.921219 
	C315.332214,243.021851 314.508972,243.151672 313.986145,243.032867 
	C314.091461,241.681931 314.280670,240.566055 314.727417,239.217194 
z"/>
<path fill="#25C5CC" opacity="1.000000" stroke="none" 
	d="
M337.118622,240.673157 
	C336.688751,240.154694 336.205231,239.304398 335.893066,238.213684 
	C336.397919,238.762589 336.731445,239.551956 337.118622,240.673157 
z"/>
<path fill="#25C5CC" opacity="1.000000" stroke="none" 
	d="
M315.179199,237.310181 
	C315.351044,237.613571 315.391632,238.232162 315.208069,238.918732 
	C315.005280,238.532944 315.026611,238.079178 315.179199,237.310181 
z"/>
<path fill="#25C5CC" opacity="1.000000" stroke="none" 
	d="
M315.766876,188.835190 
	C315.897552,188.934402 315.857910,189.190170 315.723999,189.623993 
	C315.480591,189.543762 315.469513,189.273666 315.766876,188.835190 
z"/>
<path fill="#1EC0C7" opacity="1.000000" stroke="none" 
	d="
M256.609070,124.090767 
	C256.009338,117.303108 254.781631,110.794853 255.353806,104.448883 
	C256.297760,93.979469 264.787231,87.232010 275.510162,88.031143 
	C285.993866,88.812454 293.019897,95.370842 293.862244,106.165146 
	C294.094940,109.147270 293.937805,112.162201 293.911774,115.161659 
	C293.820831,125.648331 288.646820,132.477325 279.145203,135.127670 
	C272.335968,137.026993 260.592438,134.259125 256.609070,124.090767 
z"/>
<path fill="#20C2C9" opacity="1.000000" stroke="none" 
	d="
M449.738617,100.650665 
	C450.158173,106.814034 451.033966,112.632523 450.638245,118.363228 
	C449.814728,130.289703 439.296936,135.981323 430.462280,135.575195 
	C419.023315,135.049347 412.366333,127.913315 412.048218,116.234299 
	C411.860199,109.331184 411.446625,102.474640 415.244476,95.918358 
	C419.088837,89.281769 430.529053,86.569618 435.861389,88.425026 
	C441.961700,90.547653 447.459229,93.503510 449.738617,100.650665 
z"/>
<path fill="#1FC1C8" opacity="1.000000" stroke="none" 
	d="
M333.617737,117.725731 
	C333.697998,109.847214 332.741791,102.444572 337.117645,95.500977 
	C341.137024,89.122971 352.463440,86.628777 357.981293,88.548882 
	C368.050568,92.052826 372.369049,98.142067 372.178589,108.743881 
	C372.139740,110.905968 371.956879,113.076088 372.080383,115.228737 
	C372.815948,128.050461 364.411407,134.188995 354.037598,135.607437 
	C343.657227,137.026794 335.520721,129.650208 333.617737,117.725731 
z"/>
<path fill="#24C4CB" opacity="1.000000" stroke="none" 
	d="
M450.799927,197.602219 
	C450.837219,201.708694 451.014008,205.382339 450.837036,209.038834 
	C450.128662,223.675705 434.678436,232.845825 422.008728,226.010025 
	C419.670898,224.748672 417.661560,222.455383 416.122070,220.211945 
	C410.028168,211.331711 410.647400,196.876343 415.994141,187.600296 
	C420.335236,180.068939 433.009766,177.684341 439.832794,181.914185 
	C445.665283,185.529938 449.692261,190.237274 450.799927,197.602219 
z"/>
<path fill="#25C5CC" opacity="1.000000" stroke="none" 
	d="
M330.710175,240.964478 
	C330.902802,240.891220 331.090851,240.937103 331.278900,240.982971 
	C331.087799,241.016525 330.896698,241.050079 330.710175,240.964478 
z"/>
<path fill="#27C6CC" opacity="1.000000" stroke="none" 
	d="
M569.346497,197.280396 
	C565.203003,197.990967 561.480713,198.612442 557.776306,199.230942 
	C556.490112,192.607727 564.251343,183.013000 572.533081,180.425781 
	C581.715820,177.557098 590.419250,182.043137 595.008667,192.533981 
	C586.494995,194.104874 578.131348,195.648071 569.346497,197.280396 
z"/>
<path fill="#1EC0C5" opacity="1.000000" stroke="none" 
	d="
M108.255577,178.902832 
	C108.000648,178.551773 108.000389,178.108444 108.000061,177.332550 
	C108.517105,177.115814 109.034210,177.231644 109.551315,177.347458 
	C109.204292,177.835159 108.857262,178.322861 108.255577,178.902832 
z"/>
<path fill="#1EC1C7" opacity="1.000000" stroke="none" 
	d="
M139.333679,194.027374 
	C139.262756,194.472153 139.054062,194.788803 138.845352,195.105453 
	C138.732300,195.002563 138.509445,194.827591 138.522598,194.807556 
	C138.729095,194.493027 138.966003,194.198441 139.333679,194.027374 
z"/>
<path fill="#1EC1C7" opacity="1.000000" stroke="none" 
	d="
M42.767559,205.175110 
	C42.855183,204.988235 43.021862,204.888733 43.188538,204.789230 
	C43.074562,204.946991 42.960587,205.104736 42.767559,205.175110 
z"/>
<path fill="#1CBFC5" opacity="1.000000" stroke="none" 
	d="
M73.021156,182.674347 
	C73.002960,182.864517 72.919662,182.977173 72.836357,183.089828 
	C72.876259,182.925507 72.916153,182.761169 73.021156,182.674347 
z"/>
<path fill="#1EC1C7" opacity="1.000000" stroke="none" 
	d="
M77.000885,186.001251 
	C77.001770,186.002502 76.907341,186.051620 76.952400,186.024979 
	C76.997459,185.998337 77.000000,186.000000 77.000885,186.001251 
z"/>
<path fill="#1EC0C5" opacity="1.000000" stroke="none" 
	d="
M107.116089,179.077850 
	C107.000916,179.000000 107.497925,179.000305 107.746368,179.000580 
	C107.994804,179.000870 107.632210,179.191269 107.632210,179.191269 
	C107.632210,179.191269 107.231270,179.155701 107.116089,179.077850 
z"/>
</svg>